{"glyphs":{"0":{"ha":672,"x_min":75,"x_max":596,"o":"m 543 650 q 539 653 543 653 q 535 650 535 653 q 539 646 535 646 q 543 650 543 646 m 550 728 q 546 732 550 732 q 543 728 543 732 q 546 725 543 725 q 550 728 550 725 m 285 904 q 270 892 285 900 q 256 878 256 885 q 249 868 256 868 q 242 861 242 868 q 217 814 242 854 q 183 743 192 774 q 172 708 181 731 q 159 665 164 685 q 153 624 154 646 q 142 513 142 546 q 144 474 142 486 q 176 358 154 417 q 218 276 197 300 q 351 228 260 228 q 421 244 394 228 q 449 269 442 258 q 483 332 457 279 q 529 535 529 424 q 488 817 529 744 q 358 914 435 908 q 332 919 336 917 q 325 921 331 921 q 299 915 314 921 q 285 904 285 910 m 253 964 q 321 974 272 974 q 469 942 435 974 q 485 932 479 932 q 528 877 493 932 q 568 803 564 822 q 596 533 596 663 q 592 461 596 490 q 486 222 565 310 q 347 167 436 168 l 343 167 q 272 178 315 167 q 228 196 228 189 q 221 201 228 201 q 158 260 201 201 q 114 344 114 319 l 114 347 l 115 350 q 114 360 119 360 q 90 422 104 360 q 75 524 75 483 q 86 638 75 569 q 110 744 97 706 q 113 756 113 750 l 138 808 q 163 868 163 861 q 169 875 163 875 q 203 914 176 879 q 253 964 228 949 z "},"1":{"ha":610,"x_min":74,"x_max":533,"o":"m 257 956 q 285 964 265 964 q 313 961 290 964 q 329 667 324 960 q 340 303 333 461 l 342 249 l 421 246 q 510 236 486 243 q 533 210 533 229 q 529 193 533 199 q 504 184 525 188 q 452 179 483 181 q 353 176 421 178 q 232 174 306 175 q 147 172 158 172 l 135 172 q 88 186 103 172 q 78 215 74 200 q 199 238 86 238 l 207 238 q 267 243 254 238 q 279 275 279 249 q 278 313 279 297 q 267 679 268 478 l 265 832 l 251 808 q 205 739 219 757 q 179 721 190 721 q 165 726 174 721 q 153 749 153 736 q 165 790 153 763 q 182 818 176 818 q 189 832 189 818 q 196 846 189 846 q 203 861 203 846 q 215 875 203 875 q 222 876 219 875 q 222 881 224 878 l 222 882 q 221 885 221 883 q 231 913 221 894 q 246 932 240 932 q 250 939 254 932 q 257 956 246 944 z "},"2":{"ha":639,"x_min":72,"x_max":563,"o":"m 386 907 q 382 911 386 911 q 379 907 379 911 q 382 904 379 904 q 386 907 386 904 m 264 947 q 296 953 279 953 q 353 943 315 953 q 406 921 383 936 q 429 892 429 906 q 436 882 429 882 q 456 851 440 882 q 478 796 471 819 q 481 728 481 785 q 463 621 481 669 q 426 542 450 588 q 393 489 401 496 q 372 460 392 488 q 322 394 354 433 q 274 343 289 356 q 266 336 272 342 q 250 322 260 331 q 231 304 240 313 l 192 268 l 236 264 q 418 260 274 260 l 557 260 l 561 240 q 563 229 563 236 q 503 199 563 199 l 496 199 q 269 201 451 201 q 107 205 131 203 q 79 218 83 207 q 79 247 72 233 q 206 369 99 281 q 368 601 293 443 q 396 689 396 657 q 395 700 396 692 q 394 714 394 708 q 390 778 392 769 q 388 801 388 786 q 360 838 385 813 q 335 869 335 861 q 313 874 335 874 q 288 872 297 874 q 227 858 247 869 q 181 810 207 846 q 140 764 147 764 q 129 771 136 764 q 122 785 122 778 q 132 822 122 789 q 167 885 146 865 q 264 947 218 933 z "},"3":{"ha":594,"x_min":75,"x_max":517,"o":"m 107 226 q 104 231 107 231 q 100 226 100 231 q 104 224 100 224 q 107 226 107 224 m 104 965 q 178 982 133 982 l 196 982 q 400 908 331 978 q 446 799 446 863 q 432 747 446 771 q 396 706 421 729 q 363 682 371 682 q 336 667 354 682 q 332 653 322 653 q 343 646 343 653 q 344 641 343 643 q 349 640 346 639 l 350 640 q 390 622 360 640 q 440 583 419 603 q 514 447 501 529 q 517 407 517 433 q 474 281 517 339 q 433 235 458 260 q 400 210 407 210 q 357 190 388 210 q 343 183 350 186 q 333 177 336 179 q 329 176 329 175 q 322 176 328 178 q 306 172 317 175 q 240 165 285 165 q 133 176 185 165 q 76 203 81 188 q 75 213 75 206 q 118 236 75 236 q 126 235 121 236 q 136 235 132 235 q 196 224 183 229 q 222 224 213 217 q 256 231 232 231 q 294 238 278 231 q 340 251 303 242 q 391 281 360 257 q 422 315 422 306 q 431 329 422 321 q 457 415 457 356 q 444 479 457 453 q 362 567 422 526 q 232 618 301 607 q 185 635 192 625 q 179 633 179 642 q 144 624 179 624 q 97 632 117 624 q 79 653 79 638 q 96 678 79 667 q 153 688 111 688 l 171 688 l 176 688 q 314 726 265 688 q 346 746 322 733 q 385 815 385 768 q 383 829 385 825 q 350 876 378 849 q 300 910 322 903 q 253 918 293 913 q 204 931 213 924 q 182 935 197 935 q 150 929 167 935 q 107 922 139 925 q 81 924 86 921 q 75 936 75 926 q 104 965 75 950 z "},"4":{"ha":694,"x_min":78,"x_max":617,"o":"m 318 778 q 315 782 318 782 q 311 778 311 782 q 315 775 311 775 q 318 778 318 775 m 293 703 l 293 875 q 250 814 274 847 q 193 753 207 753 q 184 752 185 753 q 189 747 183 751 q 193 740 193 744 q 177 718 193 733 q 161 700 161 703 q 185 697 161 697 l 293 703 m 247 889 q 281 935 264 908 q 313 961 297 961 q 317 960 314 961 q 321 960 319 960 l 343 957 l 346 835 l 347 710 l 367 710 q 392 710 386 707 l 493 715 q 547 717 514 717 q 603 710 589 717 q 617 685 617 704 q 592 660 617 665 q 478 651 568 654 q 356 643 360 646 q 354 622 354 643 q 357 563 354 586 q 360 504 360 515 q 356 472 360 478 q 359 456 350 464 q 367 440 368 447 q 372 297 367 439 q 375 199 375 249 q 373 171 375 176 q 363 163 371 165 q 347 160 351 160 q 318 182 321 160 q 315 231 318 194 l 290 622 q 281 633 289 631 q 239 635 272 635 l 210 635 q 104 650 129 635 q 78 679 78 665 q 142 763 78 699 q 232 867 232 854 q 247 889 232 871 z "},"5":{"ha":639,"x_min":75,"x_max":564,"o":"m 136 728 q 132 732 136 732 q 129 728 129 732 q 132 725 129 725 q 136 728 136 725 m 261 975 q 351 979 297 979 q 499 967 483 979 q 508 949 508 958 q 490 921 508 932 q 328 907 475 911 q 175 897 182 901 q 171 876 171 894 q 176 811 171 851 q 181 731 181 761 l 181 719 q 194 715 181 715 q 254 722 210 715 q 260 723 256 722 q 267 724 264 724 q 383 707 324 724 q 492 640 443 689 q 542 547 521 611 q 564 424 564 482 q 563 400 564 408 q 538 296 558 356 q 499 217 517 236 q 436 167 451 167 q 417 158 431 167 q 350 142 407 153 q 279 136 324 136 q 168 151 201 136 q 136 167 146 163 q 75 221 75 192 q 78 237 75 233 q 96 240 82 240 l 110 240 q 156 228 133 239 q 189 214 179 217 q 229 204 217 208 q 310 200 233 203 q 401 215 372 200 q 469 288 458 246 q 479 313 475 306 q 493 381 486 322 q 497 435 497 410 q 462 573 497 518 q 361 644 426 628 q 271 658 303 658 q 200 643 233 658 q 153 629 172 629 q 132 639 138 629 q 117 717 124 653 q 110 840 110 782 q 114 903 110 882 q 144 954 121 943 q 261 975 167 965 z "},"6":{"ha":642,"x_min":75,"x_max":565,"o":"m 556 428 q 551 431 556 431 q 547 428 547 431 q 551 424 547 424 q 556 428 556 424 m 410 596 q 314 618 360 618 q 263 610 288 618 q 204 581 222 596 q 171 535 186 567 q 151 454 151 489 q 156 421 151 436 q 165 388 161 404 q 213 304 172 360 q 269 265 226 285 q 342 246 313 246 l 346 246 q 431 282 392 247 q 489 372 469 317 q 507 464 507 426 q 486 538 507 508 q 457 567 467 567 q 447 574 447 567 q 410 596 447 581 m 356 967 q 385 974 372 974 q 410 960 407 974 q 401 946 413 946 q 332 896 388 946 q 304 870 317 882 q 285 852 292 858 q 281 846 279 846 l 269 828 q 245 790 257 808 q 233 769 233 771 q 215 743 233 767 q 193 703 199 721 q 174 657 190 694 l 160 629 l 176 640 q 254 669 199 656 q 343 682 310 682 q 360 681 356 682 q 376 678 376 674 l 378 678 q 447 651 394 678 q 478 631 463 644 q 494 611 494 617 q 492 610 494 610 q 483 603 483 610 q 489 599 483 599 q 501 600 494 599 q 515 600 508 601 q 563 496 543 593 q 565 464 565 476 q 541 343 565 407 q 482 247 517 279 q 413 203 458 225 q 346 182 368 182 q 339 183 340 182 q 300 190 331 188 q 233 215 276 193 q 167 258 189 236 q 113 347 140 282 q 78 464 86 411 q 75 499 75 481 q 89 610 75 551 q 118 683 96 636 q 147 736 140 731 q 154 750 154 740 q 188 808 154 761 q 243 878 221 856 q 356 967 322 954 z "},"7":{"ha":631,"x_min":79,"x_max":554,"o":"m 372 369 q 369 374 372 374 q 365 369 365 374 q 369 367 365 367 q 372 369 372 367 m 429 700 q 426 703 429 703 q 422 700 422 703 q 426 696 422 696 q 429 700 429 696 m 314 992 q 336 993 315 993 q 518 983 463 993 q 539 977 531 982 q 546 969 547 972 q 551 961 544 961 q 554 954 554 961 q 481 700 554 910 q 444 574 463 656 q 406 446 435 538 q 372 343 378 354 q 346 253 361 321 q 303 210 333 210 q 283 219 292 210 q 275 242 275 229 q 276 250 275 247 q 283 276 281 261 q 294 315 285 285 q 315 378 304 344 q 328 415 326 411 q 352 500 331 429 q 376 582 374 571 q 390 628 382 608 q 404 675 397 649 q 425 740 417 722 q 440 785 432 756 q 457 840 447 814 q 479 917 479 907 q 267 933 479 933 q 93 940 107 933 q 79 960 79 950 q 99 981 79 974 q 215 989 114 986 l 314 992 z "},"8":{"ha":631,"x_min":74,"x_max":554,"o":"m 131 428 q 126 431 131 431 q 124 428 124 431 q 126 424 124 424 q 131 428 131 424 m 418 568 q 321 592 371 592 q 308 590 311 592 q 262 561 294 585 q 211 518 229 538 q 157 421 164 465 q 151 399 154 403 q 146 324 146 390 q 153 281 146 281 q 158 279 158 281 q 157 275 158 278 q 179 249 157 268 q 222 219 201 229 q 271 211 239 211 q 354 226 317 211 q 453 308 399 246 q 496 419 496 356 q 474 508 496 464 q 450 547 460 536 q 418 568 440 558 m 447 683 q 458 683 453 678 q 453 689 463 689 q 447 683 442 689 m 382 919 q 349 938 360 938 q 328 921 339 938 q 293 904 317 904 q 231 892 271 904 q 179 871 190 881 q 163 861 169 861 q 147 839 156 861 q 135 789 138 817 q 133 771 133 782 q 156 726 133 753 q 206 685 183 696 q 307 658 260 658 q 397 695 364 658 q 431 799 431 732 q 382 919 431 878 m 283 988 q 329 1000 296 1000 q 411 978 386 1000 q 467 914 467 929 q 472 904 467 904 q 492 817 492 904 l 492 799 q 444 656 488 700 l 424 633 l 443 621 q 505 564 483 596 q 544 474 526 532 q 554 415 554 440 q 475 243 554 319 q 436 204 439 210 q 397 180 435 199 q 335 154 358 161 q 281 147 314 147 q 217 154 247 147 q 172 174 193 161 q 150 196 150 188 q 151 201 150 203 q 147 200 150 201 q 143 199 146 199 q 101 247 132 199 q 81 342 81 283 q 86 360 81 360 q 93 394 90 360 q 114 472 94 424 q 144 519 133 519 l 146 519 q 150 518 150 518 q 149 524 149 518 q 185 572 149 536 l 224 614 l 196 622 q 134 665 171 631 q 85 726 97 700 q 74 781 74 753 q 86 846 74 813 q 114 897 96 869 q 139 924 132 924 l 140 924 l 142 924 q 176 942 150 924 q 201 965 201 960 q 221 978 201 971 q 256 986 240 986 q 264 985 263 986 q 283 988 274 981 z "},"9":{"ha":535,"x_min":76,"x_max":464,"o":"m 126 685 q 122 689 126 689 q 119 685 119 689 q 122 682 119 682 q 126 685 126 682 m 365 933 q 343 939 349 939 q 299 928 332 939 q 201 869 242 907 q 158 818 153 821 q 156 810 160 818 q 147 788 153 801 q 135 743 135 758 q 150 711 135 726 q 211 688 175 688 q 236 689 226 688 q 336 763 304 700 q 350 836 350 790 l 350 854 l 350 882 q 353 914 350 907 q 364 924 356 921 q 365 933 379 928 m 243 960 q 311 982 288 982 q 349 975 324 982 q 396 938 376 967 q 414 901 411 917 q 418 829 417 885 q 442 431 421 754 q 458 268 450 314 q 464 225 464 232 q 461 213 464 215 q 460 201 456 207 q 458 195 461 199 q 447 190 454 192 q 431 188 439 188 q 414 207 421 188 q 389 320 400 243 q 378 446 378 397 q 385 481 378 481 q 385 488 396 481 q 375 565 376 493 q 367 633 372 633 l 365 633 q 363 640 363 633 q 365 661 363 646 q 367 682 367 676 q 364 689 367 689 q 340 669 360 689 q 277 636 318 649 q 200 624 236 624 q 154 632 171 624 q 86 697 111 654 q 76 742 76 715 q 99 826 76 781 q 158 906 121 872 q 189 925 178 925 q 197 932 197 925 q 243 960 197 936 z "},"\u0000":{"ha":347,"x_min":0,"x_max":0,"o":""},"\r":{"ha":347,"x_min":0,"x_max":0,"o":""}," ":{"ha":347,"x_min":0,"x_max":0,"o":""},"!":{"ha":243,"x_min":74,"x_max":174,"o":"m 118 932 q 136 944 131 944 q 157 919 146 944 q 168 862 167 901 q 169 650 169 822 q 160 392 169 404 q 135 375 147 375 q 117 383 125 375 q 106 538 106 394 l 106 656 q 108 876 106 832 q 118 932 110 921 m 89 258 q 115 272 103 272 q 129 271 124 272 q 174 219 174 263 q 125 163 174 178 q 115 161 122 161 q 86 178 99 161 q 74 218 74 196 q 89 258 74 240 z "},"\"":{"ha":418,"x_min":75,"x_max":344,"o":"m 82 931 q 106 946 93 951 q 111 936 111 944 q 122 925 111 925 q 133 906 131 925 q 138 864 133 883 q 144 799 144 806 q 135 778 144 783 q 113 771 121 771 q 86 797 96 771 q 75 882 75 831 q 82 931 75 917 m 308 896 q 313 900 313 896 q 308 904 313 904 q 306 900 306 904 q 308 896 306 896 m 272 928 q 293 943 283 943 q 319 919 307 943 q 339 888 332 896 q 344 838 344 876 q 338 769 344 790 q 314 749 332 754 q 310 748 313 749 q 307 747 308 747 q 276 796 279 747 l 272 836 q 264 896 264 878 q 272 928 264 915 z "},"“":{"ha":418,"x_min":75,"x_max":344,"o":"m 82 931 q 106 946 93 951 q 111 936 111 944 q 122 925 111 925 q 133 906 131 925 q 138 864 133 883 q 144 799 144 806 q 135 778 144 783 q 113 771 121 771 q 86 797 96 771 q 75 882 75 831 q 82 931 75 917 m 308 896 q 313 900 313 896 q 308 904 313 904 q 306 900 306 904 q 308 896 306 896 m 272 928 q 293 943 283 943 q 319 919 307 943 q 339 888 332 896 q 344 838 344 876 q 338 769 344 790 q 314 749 332 754 q 310 748 313 749 q 307 747 308 747 q 276 796 279 747 l 272 836 q 264 896 264 878 q 272 928 264 915 z "},"”":{"ha":418,"x_min":75,"x_max":344,"o":"m 82 931 q 106 946 93 951 q 111 936 111 944 q 122 925 111 925 q 133 906 131 925 q 138 864 133 883 q 144 799 144 806 q 135 778 144 783 q 113 771 121 771 q 86 797 96 771 q 75 882 75 831 q 82 931 75 917 m 308 896 q 313 900 313 896 q 308 904 313 904 q 306 900 306 904 q 308 896 306 896 m 272 928 q 293 943 283 943 q 319 919 307 943 q 339 888 332 896 q 344 838 344 876 q 338 769 344 790 q 314 749 332 754 q 310 748 313 749 q 307 747 308 747 q 276 796 279 747 l 272 836 q 264 896 264 878 q 272 928 264 915 z "},"„":{"ha":418,"x_min":75,"x_max":344,"o":"m 82 931 q 106 946 93 951 q 111 936 111 944 q 122 925 111 925 q 133 906 131 925 q 138 864 133 883 q 144 799 144 806 q 135 778 144 783 q 113 771 121 771 q 86 797 96 771 q 75 882 75 831 q 82 931 75 917 m 308 896 q 313 900 313 896 q 308 904 313 904 q 306 900 306 904 q 308 896 306 896 m 272 928 q 293 943 283 943 q 319 919 307 943 q 339 888 332 896 q 344 838 344 876 q 338 769 344 790 q 314 749 332 754 q 310 748 313 749 q 307 747 308 747 q 276 796 279 747 l 272 836 q 264 896 264 878 q 272 928 264 915 z "},"%":{"ha":824,"x_min":79,"x_max":747,"o":"m 189 176 q 186 181 189 181 q 182 176 182 181 q 186 174 182 174 q 189 176 189 174 m 654 886 q 651 889 654 889 q 647 886 647 889 q 651 882 647 882 q 654 886 654 882 m 660 906 q 686 919 672 919 q 697 910 697 919 q 655 834 697 903 q 600 751 613 765 q 586 732 586 738 q 565 692 586 725 q 539 660 544 660 q 536 654 532 660 q 529 639 539 649 q 507 607 521 632 q 472 558 499 588 q 453 528 449 532 q 454 526 454 528 q 440 508 454 521 q 418 496 425 496 q 418 485 408 496 q 421 478 421 479 q 405 454 421 469 q 389 433 389 439 q 333 349 389 426 q 272 257 278 269 q 255 242 271 250 q 239 225 239 233 q 221 183 239 217 q 185 151 201 151 q 168 158 168 151 q 158 164 168 167 l 156 164 q 147 175 147 164 q 171 226 147 196 q 196 267 196 258 q 213 283 196 272 q 222 294 226 294 q 232 311 215 294 q 246 336 246 325 q 253 344 246 344 q 264 358 258 344 q 288 392 269 371 q 310 421 306 410 q 385 531 314 433 q 531 731 518 718 q 540 746 540 740 q 549 761 540 753 q 604 833 557 769 q 660 906 651 897 m 132 707 q 128 710 132 710 q 125 707 125 710 q 128 703 125 703 q 132 707 132 703 m 232 692 q 221 713 232 701 q 197 724 210 724 q 163 714 182 724 q 139 686 139 703 q 153 660 139 674 q 183 646 167 646 q 217 663 200 646 q 232 692 232 681 m 83 696 q 121 744 83 708 q 175 781 158 781 q 190 779 183 781 q 225 767 221 774 q 232 763 232 757 q 233 764 232 764 q 260 746 240 764 q 290 714 281 728 q 303 674 303 693 q 289 639 303 653 q 281 624 274 624 q 271 610 282 624 q 186 578 250 586 l 176 578 q 134 585 156 578 q 113 601 113 593 q 113 603 113 603 q 114 604 114 603 q 116 608 117 608 q 111 607 115 608 l 110 606 l 108 606 q 90 630 100 606 q 79 669 79 654 q 82 678 79 675 q 85 682 85 679 q 85 689 86 685 q 83 696 83 693 m 726 363 q 722 367 726 367 q 719 363 719 367 q 722 360 719 360 q 726 363 726 360 m 676 432 q 653 442 671 438 q 644 443 650 443 q 622 431 631 443 q 613 403 613 419 q 615 386 613 397 q 642 360 624 360 q 672 376 656 360 q 688 408 688 392 q 676 432 688 421 m 599 483 q 642 493 618 493 q 668 482 668 493 q 678 479 668 471 q 696 483 683 483 q 715 476 715 483 q 729 461 715 467 q 744 447 740 456 q 747 413 747 439 q 693 296 747 333 q 657 282 674 282 q 639 283 646 282 q 589 304 614 288 q 564 332 564 321 q 557 353 564 346 q 549 372 549 358 q 551 394 549 378 q 599 483 561 465 z "},"&":{"ha":668,"x_min":76,"x_max":590,"o":"m 199 492 q 194 496 199 496 q 190 492 190 496 q 194 489 190 489 q 199 492 199 489 m 288 546 q 281 554 292 546 q 269 560 271 560 q 242 532 265 560 q 219 499 219 504 q 196 460 219 493 q 139 329 139 378 q 143 299 139 313 q 175 267 149 283 q 219 251 201 251 q 272 269 233 251 q 328 301 311 288 q 394 365 365 333 l 415 388 l 374 439 q 306 519 332 490 q 288 546 279 546 m 213 685 q 208 689 213 689 q 206 685 206 689 q 208 682 206 682 q 213 685 213 682 m 213 871 q 208 875 213 875 q 206 871 206 875 q 208 868 206 868 q 213 871 213 868 m 340 885 q 281 919 300 919 q 240 901 264 919 q 223 883 226 892 q 219 846 219 874 q 226 788 219 804 q 244 734 229 782 q 267 678 258 686 q 276 669 272 669 q 319 710 281 669 q 376 815 376 771 q 376 822 376 817 q 375 829 375 826 q 340 885 371 857 m 236 968 q 272 976 253 976 q 294 975 285 976 q 338 960 332 967 q 353 949 344 951 q 390 919 364 946 q 426 871 417 892 q 438 813 438 849 q 433 768 438 793 q 404 715 431 754 q 350 646 378 676 q 319 603 319 614 q 324 594 319 599 q 335 576 335 583 q 354 553 335 569 q 394 508 369 539 q 419 472 419 478 q 436 450 419 469 l 451 432 l 476 458 q 497 481 481 464 q 518 504 513 499 q 551 524 535 524 q 569 515 561 524 q 578 494 578 507 q 569 481 578 481 q 567 474 563 481 q 551 446 572 467 q 499 379 499 389 q 558 293 499 361 q 590 244 590 257 q 574 231 590 231 q 496 288 544 231 q 463 331 467 322 q 458 333 461 333 q 424 304 449 333 q 376 267 392 267 q 361 257 367 267 q 315 224 356 246 q 226 196 272 200 q 204 194 218 194 q 174 201 176 194 q 154 210 168 210 q 140 221 140 210 q 126 236 140 232 q 94 278 111 240 q 76 344 76 315 q 101 427 76 374 q 163 526 126 481 q 199 579 199 575 q 213 596 199 586 q 226 615 226 606 q 203 674 226 628 q 164 793 164 749 q 165 803 164 801 q 163 811 171 811 q 158 820 158 811 q 158 838 157 829 q 156 850 160 846 q 153 858 153 853 q 169 911 153 875 q 236 968 188 943 z "},"'":{"ha":224,"x_min":75,"x_max":150,"o":"m 132 871 q 129 875 132 875 q 125 871 125 875 q 129 868 125 868 q 132 871 132 868 m 88 939 q 110 946 101 946 q 132 932 124 946 q 150 822 150 896 q 147 806 150 811 q 143 782 139 797 q 144 778 143 781 l 144 776 q 124 760 144 760 q 108 763 119 760 q 75 872 75 771 q 88 939 75 933 z "},"‘":{"ha":224,"x_min":75,"x_max":150,"o":"m 132 871 q 129 875 132 875 q 125 871 125 875 q 129 868 125 868 q 132 871 132 868 m 88 939 q 110 946 101 946 q 132 932 124 946 q 150 822 150 896 q 147 806 150 811 q 143 782 139 797 q 144 778 143 781 l 144 776 q 124 760 144 760 q 108 763 119 760 q 75 872 75 771 q 88 939 75 933 z "},"’":{"ha":224,"x_min":75,"x_max":150,"o":"m 132 871 q 129 875 132 875 q 125 871 125 875 q 129 868 125 868 q 132 871 132 868 m 88 939 q 110 946 101 946 q 132 932 124 946 q 150 822 150 896 q 147 806 150 811 q 143 782 139 797 q 144 778 143 781 l 144 776 q 124 760 144 760 q 108 763 119 760 q 75 872 75 771 q 88 939 75 933 z "},"‚":{"ha":224,"x_min":75,"x_max":150,"o":"m 132 871 q 129 875 132 875 q 125 871 125 875 q 129 868 125 868 q 132 871 132 868 m 88 939 q 110 946 101 946 q 132 932 124 946 q 150 822 150 896 q 147 806 150 811 q 143 782 139 797 q 144 778 143 781 l 144 776 q 124 760 144 760 q 108 763 119 760 q 75 872 75 771 q 88 939 75 933 z "},"(":{"ha":411,"x_min":75,"x_max":336,"o":"m 247 953 q 288 967 247 967 q 304 961 304 967 q 310 935 304 957 q 311 925 311 932 q 275 874 311 910 q 226 818 236 835 q 179 717 186 746 q 168 685 174 690 q 163 664 163 676 q 156 628 164 651 q 151 560 151 611 q 161 428 151 468 q 199 328 178 354 q 290 238 232 285 q 336 181 336 203 q 332 168 336 175 q 306 160 325 160 q 275 168 288 160 q 187 243 226 204 q 139 299 147 282 q 119 336 126 324 q 91 409 106 360 q 75 485 76 458 l 75 500 q 94 660 75 606 q 106 695 97 665 q 122 749 114 725 q 138 772 131 772 l 139 772 q 141 774 140 772 q 142 778 142 775 q 144 787 143 782 q 144 799 144 792 q 153 831 144 828 q 158 840 158 832 q 181 883 158 849 q 221 938 203 918 q 242 950 238 954 q 247 953 247 946 z "},")":{"ha":444,"x_min":75,"x_max":369,"o":"m 333 506 q 329 510 333 510 q 326 506 326 510 q 329 503 326 503 q 333 506 333 503 m 217 238 q 162 198 214 238 q 106 158 110 158 q 92 167 94 158 q 97 182 89 175 q 101 188 104 188 l 94 186 q 78 192 82 183 q 85 210 75 200 q 163 271 106 236 q 213 314 182 281 q 261 376 243 347 q 313 576 313 458 q 301 692 313 625 q 213 846 292 749 q 175 889 188 878 q 126 925 163 900 q 90 968 90 950 q 93 979 90 971 q 108 989 97 989 q 167 968 125 989 q 258 892 208 946 q 328 794 308 839 q 363 701 356 731 q 369 614 369 671 l 369 586 q 313 344 368 443 q 262 278 299 319 q 217 238 225 238 z "},"+":{"ha":931,"x_min":78,"x_max":853,"o":"m 444 947 q 453 959 450 958 q 463 953 456 960 q 476 899 469 946 q 483 815 483 851 q 479 782 483 790 q 479 768 472 768 q 494 644 492 768 l 494 582 l 532 581 l 696 581 l 742 581 q 839 568 825 581 q 853 540 853 557 q 840 521 853 525 q 674 517 832 517 q 508 511 514 514 q 501 478 501 507 q 503 439 501 454 q 504 408 504 428 q 499 369 504 372 q 499 360 489 364 q 508 265 506 356 q 510 213 510 243 q 499 161 510 171 q 478 154 492 154 q 447 172 454 154 q 440 340 447 174 q 432 508 433 507 q 122 517 429 517 q 91 526 104 517 q 78 544 78 535 q 86 557 78 553 q 140 569 101 567 q 379 576 178 571 l 433 578 l 435 756 q 444 947 438 933 z "},",":{"ha":257,"x_min":75,"x_max":182,"o":"m 114 158 q 103 196 103 181 q 124 222 103 222 q 144 217 133 222 q 165 195 154 211 q 176 171 176 179 q 172 167 176 167 q 172 160 161 167 q 180 146 181 154 q 181 126 179 138 q 182 118 182 124 q 168 80 182 101 q 138 49 154 58 q 106 42 124 42 q 82 50 82 42 q 76 68 82 60 q 75 74 75 69 q 99 110 75 86 q 122 140 122 133 q 114 158 122 146 z "},".":{"ha":233,"x_min":75,"x_max":160,"o":"m 78 214 q 115 264 86 264 q 119 263 117 264 q 124 263 122 263 q 160 218 160 254 q 143 181 160 197 q 124 168 131 168 q 99 176 118 168 q 75 196 75 186 q 78 214 75 197 z "},"=":{"ha":671,"x_min":72,"x_max":597,"o":"m 92 700 q 121 707 103 707 q 138 706 132 707 q 399 693 179 699 q 556 683 521 690 q 592 656 592 676 q 580 628 592 635 q 529 621 568 621 l 499 621 l 424 624 q 257 628 349 626 q 112 632 138 631 q 81 643 86 633 q 72 667 72 653 q 92 700 72 689 m 461 476 q 479 478 468 478 q 497 477 483 478 q 521 476 511 476 q 589 461 578 475 q 597 443 597 449 q 585 424 597 436 q 526 408 571 410 q 171 397 311 408 q 144 396 161 396 q 107 403 117 396 q 97 432 97 411 q 129 460 97 454 q 332 471 161 465 l 461 476 z "},"?":{"ha":553,"x_min":78,"x_max":474,"o":"m 182 979 q 238 985 204 985 q 358 957 326 985 q 379 946 369 946 q 419 917 390 946 q 449 878 449 888 q 449 874 449 876 q 448 869 447 869 q 451 871 449 869 l 453 871 q 466 846 458 871 q 474 803 474 821 q 472 793 474 794 q 469 779 465 783 q 471 775 471 778 q 443 715 471 760 q 394 653 415 671 q 264 592 335 599 q 211 581 217 586 q 206 561 206 575 q 208 533 206 556 q 217 394 217 475 q 216 378 217 388 q 215 365 215 368 q 205 344 214 354 q 188 333 196 333 l 185 333 q 156 351 160 339 q 151 422 151 363 l 151 440 q 144 550 151 508 q 140 594 140 578 q 144 624 140 611 q 160 644 151 640 q 211 649 168 647 q 324 672 310 654 q 338 682 331 682 q 365 705 346 682 q 396 753 385 728 q 410 807 410 781 q 397 846 410 831 q 218 926 331 926 q 142 919 176 926 q 104 915 119 915 q 78 926 78 915 q 107 953 78 938 q 182 979 136 969 m 156 272 q 181 279 169 279 q 228 239 215 279 q 233 214 233 224 q 225 189 233 206 q 181 160 208 160 q 143 178 161 160 q 122 211 122 199 q 133 245 122 225 q 156 272 144 265 z "},"@":{"ha":838,"x_min":75,"x_max":761,"o":"m 274 201 q 276 206 276 201 q 274 210 276 210 q 269 206 269 210 q 274 201 269 201 m 442 456 q 438 460 442 460 q 435 456 435 460 q 438 453 435 453 q 442 456 442 453 m 492 557 q 489 560 492 560 q 485 557 485 560 q 489 553 485 553 q 492 557 492 553 m 276 571 q 274 574 276 574 q 269 571 269 574 q 274 567 269 567 q 276 571 276 567 m 263 599 q 260 603 263 603 q 256 599 256 603 q 260 596 256 596 q 263 599 263 596 m 432 656 q 383 671 397 671 q 339 644 365 671 q 299 533 299 604 q 303 494 299 506 q 322 465 307 483 q 382 429 354 429 q 408 439 397 429 q 438 483 424 451 q 451 536 451 514 q 449 550 451 542 q 442 588 442 571 q 453 624 442 615 q 460 635 460 631 q 432 656 460 643 m 356 692 q 353 696 356 696 q 349 692 349 696 q 353 689 349 689 q 356 692 356 689 m 206 800 q 201 803 206 803 q 199 800 199 803 q 201 796 199 796 q 206 800 206 796 m 256 821 q 251 825 256 825 q 249 821 249 825 q 251 818 249 818 q 256 821 256 818 m 349 914 q 344 918 349 918 q 396 935 372 929 q 461 946 443 946 q 478 939 478 946 q 494 939 478 932 q 507 940 497 940 q 552 933 526 940 q 578 918 578 925 q 592 911 578 911 q 668 863 618 911 q 738 774 718 815 q 761 661 761 725 q 757 606 761 635 q 729 514 742 514 q 728 515 728 514 q 726 515 728 515 q 721 517 721 518 l 722 514 q 724 510 724 513 q 681 450 724 489 q 593 419 646 419 q 518 442 550 419 q 493 453 503 453 q 479 439 483 453 q 463 408 476 425 q 435 385 449 392 q 371 368 401 368 q 278 414 317 368 q 251 450 251 443 q 247 464 251 458 q 238 517 243 469 q 237 526 238 519 q 236 536 236 533 q 322 701 236 632 q 403 724 353 724 q 415 722 413 724 q 462 691 435 717 q 489 651 489 665 q 496 629 489 635 q 517 571 507 621 q 535 518 526 521 q 542 506 542 515 q 560 489 542 497 q 600 479 579 481 l 601 479 q 644 498 622 479 q 682 546 667 517 q 700 650 700 581 q 692 735 700 708 q 656 789 683 761 q 560 857 619 826 q 515 874 532 871 q 453 878 497 878 q 389 874 406 878 q 336 850 372 871 q 250 790 290 825 q 197 731 210 756 q 165 657 167 663 q 139 503 144 588 q 144 431 139 492 q 150 360 149 371 q 181 304 154 336 q 243 250 208 272 q 260 231 264 238 q 260 226 258 228 q 265 228 261 225 q 267 228 267 228 l 269 229 q 307 217 282 229 q 432 196 349 196 q 492 201 471 196 q 538 210 528 210 q 594 231 556 210 q 646 249 631 249 l 650 249 q 664 224 664 244 q 651 194 664 206 q 583 160 629 176 q 506 144 536 144 q 475 138 479 144 q 436 135 474 135 q 346 140 374 135 q 247 176 306 147 q 189 217 189 204 q 190 222 189 224 q 186 221 189 222 l 185 219 l 183 219 q 158 234 175 219 q 142 257 142 249 q 131 268 142 263 q 101 313 119 272 q 79 385 83 354 q 75 456 75 418 q 100 649 75 556 q 108 690 104 661 q 129 735 111 703 q 157 776 147 767 q 182 806 169 789 q 342 918 235 874 l 342 914 q 344 911 342 911 q 349 914 349 911 m 342 918 l 344 918 l 342 918 z "},"A":{"ha":667,"x_min":74,"x_max":592,"o":"m 400 499 q 396 503 400 503 q 393 499 393 503 q 396 496 393 496 q 400 499 400 496 m 357 521 q 353 524 357 524 q 350 521 350 524 q 353 517 350 517 q 357 521 357 517 m 450 542 q 446 546 450 546 q 443 542 443 546 q 446 539 443 539 q 450 542 450 539 m 217 760 q 221 764 221 760 q 217 768 221 768 q 214 764 214 768 q 217 760 214 760 m 289 829 q 274 858 283 857 q 271 850 271 858 q 265 839 271 839 q 258 824 261 839 q 217 592 258 786 q 210 547 213 561 q 208 528 207 532 q 219 528 210 525 q 306 532 232 532 q 385 538 374 532 q 389 544 389 539 q 375 581 389 554 q 328 702 361 608 q 289 829 296 796 m 182 750 q 191 798 182 754 q 201 844 200 842 q 207 863 201 853 q 218 912 211 869 q 233 960 225 954 q 251 967 242 967 q 279 949 263 967 q 339 839 310 915 q 369 760 361 781 q 382 724 381 733 q 408 663 383 719 q 456 556 436 603 q 492 474 475 508 q 507 429 507 440 q 518 409 507 422 q 529 388 529 396 q 535 374 529 374 q 540 365 540 374 q 563 308 540 356 q 592 199 592 246 q 585 176 592 181 q 556 179 574 171 q 518 243 538 186 q 428 457 494 311 q 417 475 421 472 q 397 475 413 478 q 283 471 378 471 l 193 471 l 189 449 q 185 425 189 447 q 178 388 182 403 q 169 374 174 374 q 167 367 163 374 q 168 360 168 365 q 151 285 168 350 q 149 272 150 281 q 145 249 147 263 q 142 226 143 236 q 101 167 132 167 q 84 179 94 167 q 74 201 74 192 q 76 221 74 204 q 81 251 79 238 q 88 317 82 264 q 110 438 90 340 q 133 546 129 535 q 136 560 136 557 q 153 621 149 588 q 165 668 158 663 q 172 701 171 672 q 175 735 172 731 q 182 750 182 744 z "},"B":{"ha":588,"x_min":72,"x_max":515,"o":"m 133 585 q 129 589 133 589 q 126 585 126 589 q 129 582 126 582 q 133 585 133 582 m 97 621 q 93 624 97 624 q 90 621 90 624 q 93 617 90 617 q 97 621 97 617 m 93 667 q 97 671 97 667 q 93 675 97 675 q 90 671 90 675 q 93 667 90 667 m 315 900 q 182 918 265 918 q 146 915 153 918 l 122 907 l 122 857 q 128 760 122 813 q 161 235 156 503 l 161 215 l 207 218 q 282 233 267 224 q 290 235 288 238 q 292 233 290 233 q 326 247 299 233 q 367 271 353 260 q 396 288 388 288 q 426 324 400 288 q 450 392 450 360 q 438 467 450 419 q 385 565 424 525 q 307 604 347 604 q 258 607 292 604 q 229 626 231 619 l 229 635 q 288 696 231 678 q 373 744 339 713 q 407 806 407 775 q 404 819 407 811 q 369 865 397 840 q 315 900 342 890 m 164 983 q 203 989 172 989 q 244 982 240 989 q 256 979 249 975 q 264 981 257 981 q 313 970 281 981 q 365 947 346 960 q 422 904 393 931 q 458 861 450 878 q 474 796 474 832 q 419 679 474 728 l 385 649 l 413 633 q 482 553 451 611 q 515 439 513 494 l 515 422 q 456 229 515 292 q 222 146 374 146 l 196 146 q 108 163 118 149 q 97 204 97 178 q 103 221 97 221 l 104 219 l 106 219 q 110 219 110 217 q 106 228 110 221 q 97 298 101 233 q 90 431 93 363 q 86 506 88 499 q 72 824 72 614 q 74 923 72 903 q 86 950 76 943 q 106 957 101 961 q 111 960 111 953 q 126 972 111 965 q 156 979 142 978 q 164 983 160 979 z "},"C":{"ha":682,"x_min":72,"x_max":607,"o":"m 531 226 q 526 231 531 231 q 522 226 522 231 q 526 224 522 224 q 531 226 531 224 m 222 288 q 228 283 222 278 q 228 293 233 288 q 222 288 224 293 m 551 904 q 558 911 558 904 q 556 918 558 918 q 547 910 550 918 q 551 904 546 904 m 389 932 q 362 922 378 932 q 336 911 346 911 q 322 904 322 911 q 313 896 322 896 q 249 835 297 896 q 200 754 200 774 q 194 746 200 746 q 181 708 192 746 q 163 657 172 675 q 149 581 149 633 q 161 492 149 533 q 273 300 201 363 q 458 236 344 238 l 468 236 q 550 265 519 236 q 579 281 565 281 q 603 263 594 281 q 607 249 607 254 q 588 219 607 240 q 554 194 563 194 q 538 185 544 194 q 503 172 533 179 q 457 164 474 164 q 453 164 456 164 l 450 165 q 418 169 442 165 q 217 253 289 185 q 174 303 203 265 q 133 363 146 340 q 103 415 129 371 q 90 455 90 438 q 82 490 89 472 q 75 518 72 515 q 82 592 76 519 q 92 669 88 663 q 99 692 96 675 q 149 804 106 729 q 228 914 192 879 q 315 974 263 947 q 336 985 326 979 q 350 994 346 992 q 367 999 354 996 q 401 1003 379 1001 q 440 1004 415 1004 q 575 932 540 1004 q 594 871 594 889 q 585 857 594 857 q 543 885 569 857 q 481 925 513 917 q 435 940 453 932 q 424 943 431 943 q 408 938 419 943 q 389 932 397 932 z "},"D":{"ha":596,"x_min":72,"x_max":524,"o":"m 129 199 q 125 201 129 201 q 122 199 122 201 q 125 194 122 194 q 129 199 129 194 m 465 675 q 461 669 456 675 q 471 669 467 664 q 465 675 469 674 m 204 907 q 160 918 182 914 l 131 922 l 133 858 q 156 585 140 683 q 167 379 164 536 q 172 249 169 251 l 174 249 q 231 274 185 249 q 303 317 278 299 q 406 442 360 361 q 457 589 451 522 q 458 601 457 593 q 458 613 458 610 q 446 676 458 639 q 364 808 415 760 q 287 865 335 836 q 204 907 239 894 m 96 975 q 125 978 103 978 q 181 972 153 978 q 208 960 208 967 q 215 957 208 953 q 224 958 217 958 q 304 929 264 958 q 338 907 319 918 q 409 851 367 889 q 451 806 451 814 q 472 768 451 804 q 524 588 524 685 q 519 549 524 565 q 476 439 510 504 q 414 342 443 374 q 311 249 346 268 q 231 204 239 204 q 229 206 229 204 q 211 196 229 211 q 183 181 190 181 q 161 167 172 181 q 128 153 149 153 q 111 160 114 153 q 103 233 106 167 q 99 371 100 300 q 97 449 99 442 q 72 899 72 714 q 76 963 72 956 q 96 975 82 971 z "},"E":{"ha":586,"x_min":72,"x_max":510,"o":"m 117 878 q 113 882 117 882 q 110 878 110 882 q 113 875 110 875 q 117 878 117 875 m 263 1000 q 379 1007 378 1006 q 389 1008 381 1008 q 437 1004 407 1008 q 469 996 467 1000 q 478 975 478 988 q 469 953 478 961 q 303 940 457 940 q 140 932 149 939 q 131 894 131 924 q 139 783 131 864 l 147 694 l 308 696 q 457 697 371 697 l 479 697 q 486 675 486 697 q 479 649 486 656 q 292 635 472 642 l 147 629 q 153 549 146 628 q 160 413 156 519 q 171 267 165 306 l 175 233 l 201 239 q 349 256 265 256 q 367 255 354 256 q 388 254 381 254 q 490 247 469 251 q 510 226 510 243 q 493 196 510 203 q 413 188 476 189 q 271 181 361 188 q 176 175 196 175 q 124 183 132 175 q 110 249 115 192 q 99 395 104 306 q 92 503 93 485 q 85 619 89 531 q 76 744 81 707 q 72 858 72 790 q 79 965 72 951 q 263 1000 94 994 z "},"F":{"ha":596,"x_min":74,"x_max":524,"o":"m 444 993 q 440 996 444 996 q 436 993 436 996 q 440 989 436 989 q 444 993 444 989 m 235 996 q 414 1000 304 1000 q 515 989 508 999 q 522 969 524 975 q 508 965 519 963 q 494 961 494 969 q 501 957 494 954 q 508 954 508 960 q 494 943 508 946 q 418 936 481 940 q 243 931 329 931 q 149 939 156 931 q 142 946 144 946 q 138 921 138 946 q 140 865 138 890 q 147 769 147 796 q 149 706 147 729 l 149 664 l 194 668 q 376 683 306 679 q 444 686 435 686 q 501 676 482 686 q 518 649 524 664 q 501 626 513 631 q 442 619 490 622 q 362 614 424 618 q 275 608 300 610 q 175 603 192 603 q 168 603 171 603 q 164 603 165 603 l 161 604 q 156 543 156 604 q 149 482 156 482 l 147 482 l 144 482 q 150 474 144 481 q 161 378 161 461 l 161 313 l 160 165 l 136 164 q 110 168 114 161 q 94 388 100 183 q 76 776 88 675 q 74 824 74 796 q 76 843 74 843 q 76 863 83 846 q 75 874 75 867 q 83 906 75 885 q 92 938 92 928 q 119 979 92 968 q 235 996 146 990 z "},"G":{"ha":697,"x_min":75,"x_max":625,"o":"m 140 394 q 138 399 140 399 q 133 394 133 399 q 138 392 133 392 q 140 394 140 392 m 108 614 q 111 618 111 614 q 108 622 111 622 q 104 618 104 622 q 108 614 104 614 m 483 990 q 489 992 485 992 q 533 981 503 992 q 579 960 564 969 q 608 918 608 939 q 606 911 608 914 q 603 910 604 910 q 564 924 592 910 q 489 939 526 939 l 479 939 q 276 847 363 938 q 146 604 167 733 q 139 517 139 560 q 147 446 139 456 q 157 422 151 440 q 163 393 163 403 l 163 386 l 168 388 q 176 384 171 389 q 185 371 181 379 q 250 290 199 343 q 392 233 304 233 q 424 236 414 233 q 444 243 435 239 q 468 250 454 247 q 513 283 492 256 q 540 344 535 311 q 547 399 547 379 q 544 408 547 407 q 542 426 542 411 q 544 466 542 439 q 546 499 546 493 q 545 519 546 503 q 544 544 544 535 l 543 571 l 449 571 q 351 576 375 571 q 328 600 328 582 q 351 630 328 624 q 468 636 375 636 q 597 625 586 636 q 606 603 610 613 q 614 586 601 594 q 625 525 625 579 l 625 481 q 614 350 622 376 q 606 317 601 324 q 607 313 607 315 q 593 269 607 300 q 565 219 579 238 q 421 154 513 154 q 228 229 317 154 q 136 335 182 267 q 90 432 90 403 q 83 451 90 447 q 75 503 75 457 l 76 546 l 76 575 q 88 643 76 596 q 108 706 99 690 q 119 732 119 722 q 158 799 119 743 q 222 882 197 856 q 331 959 271 931 q 446 988 392 988 l 453 988 q 483 990 478 985 z "},"H":{"ha":679,"x_min":72,"x_max":610,"o":"m 97 878 q 94 881 97 881 q 90 878 90 881 q 94 874 90 874 q 97 878 97 874 m 508 949 q 504 953 508 953 q 500 949 500 953 q 504 946 500 946 q 508 949 508 946 m 504 974 q 526 981 518 981 q 547 971 539 981 q 560 935 556 961 q 565 894 564 908 q 568 839 567 879 q 569 811 569 821 q 578 683 575 690 q 585 640 582 671 q 590 597 588 608 q 610 250 610 483 q 606 176 610 185 q 582 168 601 168 q 560 174 567 168 q 545 244 554 178 q 536 354 536 311 l 536 364 q 533 410 536 385 q 530 447 532 418 q 526 485 528 475 q 508 611 515 603 q 390 618 504 618 l 339 618 q 274 620 303 618 q 226 625 244 622 q 194 632 208 628 q 174 640 181 636 q 163 646 167 643 q 157 651 158 649 q 154 653 156 653 q 153 628 153 644 q 160 289 153 546 q 161 224 161 265 q 160 186 161 192 q 126 158 153 158 q 113 161 117 158 q 101 184 103 167 q 99 282 100 201 q 76 672 96 490 q 72 793 72 714 q 79 940 72 903 q 96 972 83 967 q 113 967 106 976 q 118 946 121 958 q 121 921 115 936 q 129 849 124 913 q 139 756 135 790 q 142 713 144 719 q 144 694 139 707 q 188 683 149 683 q 243 685 219 683 q 421 686 294 686 l 504 686 l 503 739 q 497 878 503 815 q 493 944 493 928 q 504 974 493 965 z "},"I":{"ha":631,"x_min":75,"x_max":554,"o":"m 240 1003 q 365 1007 278 1007 q 533 1000 510 1007 q 554 968 554 993 q 550 951 554 960 q 528 941 544 943 q 451 938 513 939 q 415 937 438 938 q 385 936 393 936 q 369 936 376 936 q 358 937 363 936 q 353 938 354 938 q 346 789 346 938 q 361 349 346 489 q 364 307 363 338 q 365 271 365 276 l 367 225 l 442 228 q 496 229 465 229 q 535 225 525 229 q 547 207 544 221 q 549 199 549 204 q 528 167 549 183 q 490 146 507 146 q 132 154 232 154 l 122 154 l 119 154 q 92 163 103 154 q 82 182 82 171 q 99 207 82 197 q 276 226 126 224 q 308 232 310 228 q 296 309 303 236 q 288 447 289 382 q 282 485 288 485 q 279 496 279 485 q 289 551 279 536 q 283 564 294 558 q 275 733 275 569 q 276 906 275 901 q 278 917 278 910 q 247 929 278 929 q 190 926 243 929 q 136 924 146 924 q 104 929 104 924 q 89 940 104 935 q 75 963 75 944 q 85 975 75 975 q 99 981 97 975 q 240 1003 101 989 z "},"J":{"ha":694,"x_min":78,"x_max":617,"o":"m 231 157 q 228 161 231 161 q 224 157 224 161 q 228 154 224 154 q 231 157 231 154 m 533 999 q 539 1001 533 1001 q 590 986 560 1001 q 617 958 617 974 q 608 940 617 950 q 558 926 597 926 q 488 928 519 926 l 382 933 l 385 908 q 388 875 386 901 q 393 825 390 849 q 400 796 396 801 q 399 785 404 789 q 394 764 394 783 q 403 582 394 749 q 407 446 407 496 q 397 326 407 369 q 351 188 374 218 q 263 146 322 146 q 157 186 204 146 q 131 206 140 201 q 102 241 119 211 q 81 293 85 271 q 78 317 78 304 q 86 336 78 328 q 107 346 99 346 q 149 304 126 346 q 180 254 169 265 q 221 226 190 243 l 253 210 l 272 224 q 309 266 299 243 q 325 342 319 289 q 333 592 333 417 q 321 904 333 839 l 315 924 l 232 924 q 136 928 147 924 q 118 957 118 935 q 122 974 118 965 q 163 990 129 988 q 354 993 197 993 q 533 999 533 993 z "},"K":{"ha":640,"x_min":69,"x_max":563,"o":"m 478 870 q 463 857 478 870 q 444 844 447 844 q 414 819 442 844 q 382 794 386 794 q 350 769 378 794 q 314 744 322 744 q 304 739 304 744 q 278 721 304 733 q 244 700 261 713 q 215 680 236 693 q 177 657 194 667 q 160 649 160 647 q 156 647 158 650 q 179 617 156 642 q 203 590 203 592 q 229 559 203 589 q 256 521 256 529 q 254 515 256 514 q 258 517 256 515 l 260 517 q 325 453 275 517 q 397 385 328 449 q 512 264 461 326 q 563 182 563 201 q 549 160 563 164 q 535 163 535 156 q 525 164 535 169 l 524 164 q 486 194 513 164 q 331 358 454 232 q 189 504 207 485 l 128 569 l 129 518 q 135 296 135 321 q 128 191 135 218 q 106 158 122 164 q 100 157 104 157 q 80 170 89 157 q 71 197 71 183 q 73 227 71 204 q 75 268 75 250 q 71 332 75 328 q 69 336 69 332 q 73 350 69 339 q 76 367 76 361 q 74 374 76 371 q 69 529 69 375 q 79 935 69 918 q 82 949 82 939 l 82 963 q 94 982 82 982 q 122 943 115 982 q 131 771 128 904 l 132 701 l 174 733 q 221 765 215 765 q 339 847 228 765 q 386 882 351 857 q 443 925 421 907 q 458 938 450 931 q 475 951 467 944 q 485 958 483 957 q 506 965 494 965 q 526 959 517 965 q 536 943 536 953 q 527 914 536 932 q 513 896 518 896 q 478 870 508 896 z "},"L":{"ha":568,"x_min":68,"x_max":490,"o":"m 111 538 q 122 538 117 532 q 117 543 126 543 q 111 538 106 543 m 124 939 q 115 946 124 946 q 117 933 104 946 q 121 931 119 931 q 124 939 124 931 m 96 988 q 125 981 111 1006 q 136 604 132 967 q 139 242 139 285 l 139 217 l 139 190 l 213 194 q 378 197 253 197 q 482 188 472 197 q 490 174 489 179 q 483 156 490 169 l 472 136 l 364 133 q 222 132 322 132 l 174 132 q 87 140 106 133 q 68 174 68 146 q 69 182 68 176 q 69 192 69 188 q 72 385 72 222 q 72 544 72 438 q 71 690 71 650 q 74 801 71 801 l 75 842 q 80 927 75 881 q 96 988 85 974 z "},"M":{"ha":786,"x_min":69,"x_max":717,"o":"m 121 193 q 117 197 121 197 q 114 193 114 197 q 117 190 114 190 q 121 193 121 190 m 696 229 q 693 233 696 233 q 689 229 689 233 q 693 226 689 226 q 696 229 696 226 m 89 808 q 92 813 92 808 q 89 817 92 817 q 85 813 85 817 q 89 808 85 808 m 69 718 q 79 983 69 978 q 101 989 89 989 q 114 982 114 989 q 132 971 114 976 q 182 932 144 968 q 329 782 219 896 q 390 731 379 731 q 401 735 394 731 q 413 744 413 743 q 419 758 408 744 q 440 771 433 772 q 446 772 444 769 q 447 778 447 774 q 529 864 447 789 q 647 961 611 939 q 676 972 665 972 q 708 926 700 972 q 715 722 713 908 q 717 365 715 469 l 717 286 q 714 165 717 174 q 689 150 707 150 q 667 158 678 150 q 654 207 657 168 q 649 410 651 246 q 639 801 643 733 l 639 854 l 569 789 q 465 701 510 736 q 431 665 431 675 q 422 646 431 656 q 404 636 414 636 q 369 653 393 636 q 344 678 344 669 q 335 686 344 686 q 303 710 326 686 q 237 773 282 733 q 183 815 192 813 q 156 838 176 817 q 142 851 146 849 q 137 852 139 854 q 132 842 135 850 q 129 719 129 835 q 132 553 129 590 q 135 396 135 483 q 128 172 135 179 q 107 165 121 165 q 85 175 90 165 q 69 518 69 206 l 69 718 z "},"N":{"ha":732,"x_min":71,"x_max":667,"o":"m 532 254 q 536 258 536 254 q 532 263 536 263 q 529 258 529 263 q 532 254 529 254 m 126 640 q 122 643 126 643 q 118 640 118 643 q 122 636 118 636 q 126 640 126 636 m 629 783 q 626 788 629 788 q 622 783 622 788 q 626 781 622 781 q 629 783 629 781 m 636 849 q 633 851 636 851 q 629 849 629 851 q 633 844 629 844 q 636 849 636 844 m 81 978 q 93 981 82 981 q 151 964 125 981 q 192 908 169 954 q 224 854 214 864 q 233 835 233 844 q 249 806 233 826 q 260 788 264 788 q 286 729 258 788 q 349 603 314 671 q 399 510 385 535 q 436 458 411 486 q 457 424 457 435 q 468 408 457 414 q 474 399 478 404 q 476 392 469 392 q 492 375 481 392 q 514 339 503 358 q 526 318 525 319 q 532 296 539 306 q 532 293 532 293 q 554 272 539 297 l 571 247 l 574 271 q 578 419 578 289 q 584 548 578 507 q 592 658 590 589 q 600 957 599 953 q 615 972 601 964 q 640 979 629 979 q 647 978 646 979 q 662 962 657 974 q 660 944 667 950 q 658 908 653 938 q 661 826 661 897 q 656 446 661 708 q 633 175 650 251 q 604 151 628 151 q 575 156 594 151 q 545 169 556 160 q 517 207 535 178 q 474 276 503 228 q 450 315 464 294 q 426 354 436 336 q 372 439 413 381 q 335 507 335 494 q 322 524 335 518 q 315 532 311 528 q 303 560 321 538 q 240 676 288 579 q 142 874 146 874 q 140 869 140 874 q 141 855 140 864 q 143 836 142 846 q 158 442 153 744 q 165 201 164 208 l 165 192 q 161 156 165 169 q 151 137 156 142 q 133 132 146 132 q 104 146 111 132 q 92 313 97 157 q 85 474 86 468 q 76 582 79 554 q 74 638 74 626 q 76 657 74 657 q 75 674 82 658 q 71 761 71 681 q 81 978 71 961 z "},"O":{"ha":764,"x_min":75,"x_max":693,"o":"m 481 175 q 485 179 485 175 q 481 183 485 183 q 478 179 478 183 q 481 175 478 175 m 435 900 q 429 902 435 900 q 381 907 422 904 q 332 918 339 910 q 327 923 328 924 q 329 915 326 922 q 317 903 333 903 q 285 888 300 903 q 265 874 271 874 q 242 856 260 874 q 225 832 225 839 q 219 824 225 824 q 190 785 213 824 q 158 721 167 747 q 135 574 135 650 q 150 451 135 511 q 192 343 156 418 q 249 269 207 311 q 307 226 290 226 q 324 218 315 226 q 376 207 329 213 q 401 206 386 206 q 460 224 425 206 q 596 381 554 272 q 629 546 629 468 q 617 651 629 594 q 612 678 614 664 q 608 702 610 693 q 606 714 606 711 q 600 722 606 722 q 586 750 596 722 q 545 815 576 779 q 482 874 514 851 q 435 900 449 896 m 333 967 q 371 972 357 972 q 390 965 383 972 q 398 960 397 960 q 396 965 399 960 q 394 971 394 967 q 400 974 394 974 q 453 960 413 974 q 615 829 563 922 q 622 818 618 825 q 629 807 626 811 q 633 800 632 803 q 662 733 643 788 q 686 647 681 679 q 693 564 693 603 q 649 344 693 436 q 550 207 600 250 q 509 177 532 190 q 475 164 486 164 l 474 164 q 471 165 472 165 q 463 163 463 171 q 440 151 463 157 q 399 144 417 144 l 394 144 q 282 168 329 147 q 96 408 150 236 q 75 546 75 472 l 75 568 q 100 749 76 693 q 111 778 111 774 q 142 830 111 788 q 196 894 172 872 q 333 967 254 950 z "},"P":{"ha":640,"x_min":71,"x_max":563,"o":"m 521 819 q 517 824 521 824 q 513 819 513 824 q 517 817 513 817 q 521 819 521 817 m 469 942 q 467 946 469 946 q 463 942 463 946 q 467 939 463 939 q 469 942 469 939 m 300 947 q 172 964 204 964 q 154 961 160 964 q 147 939 147 957 q 150 908 147 933 q 156 776 153 888 l 157 690 l 275 694 q 424 707 404 700 q 479 744 457 718 q 501 800 501 771 q 497 822 501 811 q 470 878 482 863 q 433 907 458 893 q 409 922 418 915 q 401 931 400 929 q 401 933 401 932 q 397 934 400 933 q 392 935 394 935 q 385 936 389 936 q 300 947 358 936 m 143 996 q 139 1007 149 996 l 135 1010 q 139 999 129 1010 l 143 996 m 147 1019 q 203 1021 158 1021 l 229 1021 q 375 1000 290 1017 q 397 990 389 997 q 417 983 400 986 q 452 973 435 981 q 469 960 469 965 q 476 957 469 953 l 478 957 q 521 918 489 957 q 556 860 553 879 q 563 792 563 811 q 551 743 563 763 q 457 657 522 689 q 258 626 397 626 l 231 626 l 158 626 l 164 394 l 168 163 l 151 157 q 126 150 143 154 l 125 150 q 111 167 118 150 q 104 201 104 185 l 104 231 q 94 413 104 300 q 75 575 85 526 q 71 685 71 589 q 72 788 71 751 q 86 988 76 972 q 101 1000 97 1004 q 113 1006 107 996 q 147 1019 117 1017 z "},"Q":{"ha":901,"x_min":75,"x_max":826,"o":"m 806 208 q 801 211 806 211 q 799 208 799 211 q 801 204 799 204 q 806 208 806 204 m 411 914 q 319 918 322 917 l 318 918 q 269 892 308 918 q 229 858 229 865 q 207 819 229 851 q 143 642 175 774 q 132 517 132 590 q 142 431 132 449 q 158 401 146 424 q 180 362 169 378 q 204 332 190 346 q 272 272 264 271 q 276 272 272 274 q 290 267 281 271 q 307 260 299 264 q 471 215 394 217 q 554 229 528 215 q 600 247 581 242 q 626 272 626 254 q 614 286 626 282 q 576 313 599 292 q 550 367 550 339 q 564 394 550 385 q 575 399 569 399 q 625 367 586 399 q 678 326 672 326 q 688 343 683 326 q 701 369 694 361 q 718 433 710 379 q 728 535 726 488 q 713 633 728 585 q 697 694 697 685 q 647 801 693 721 q 600 857 632 828 q 542 897 568 886 q 501 919 506 914 q 496 921 496 925 q 411 914 496 914 m 626 917 q 654 896 654 899 q 679 862 654 893 q 704 828 704 831 q 719 801 704 822 q 756 718 733 782 q 786 611 778 654 q 793 532 793 572 q 780 407 793 468 q 746 317 767 346 q 735 293 735 301 q 767 263 735 278 q 826 206 826 231 q 819 182 826 196 q 792 171 813 167 q 742 195 778 174 q 690 232 707 217 q 682 238 686 238 q 667 224 676 238 q 653 211 658 211 q 633 201 643 211 q 560 172 618 189 q 472 154 501 154 q 290 201 386 154 q 139 315 193 247 q 88 402 101 363 q 75 507 75 442 q 89 667 75 582 q 122 792 103 751 q 136 826 136 819 q 165 869 136 829 q 234 939 194 908 q 310 981 274 969 q 354 986 329 986 q 374 985 368 986 q 544 961 528 971 q 564 958 558 953 q 585 949 568 963 q 626 917 594 939 z "},"R":{"ha":592,"x_min":69,"x_max":514,"o":"m 122 208 q 118 211 122 211 q 114 208 114 211 q 118 204 114 204 q 122 208 122 204 m 107 313 q 103 307 97 313 q 113 307 108 301 q 107 313 111 311 m 219 535 q 222 539 222 535 q 219 543 222 543 q 215 539 215 543 q 219 535 215 535 m 344 928 q 272 944 336 935 q 175 953 207 953 q 161 951 163 953 q 139 946 156 946 q 125 944 128 946 q 122 931 122 942 q 125 894 122 928 q 131 768 126 875 l 132 696 l 207 699 q 365 731 301 701 q 404 740 399 744 l 408 739 l 407 743 q 423 766 407 749 q 439 788 439 783 q 444 792 439 797 l 446 792 q 449 806 449 792 q 447 839 449 825 q 421 875 446 850 q 376 910 396 900 q 344 928 353 922 m 226 1004 q 253 1006 240 1006 q 288 1000 260 1006 q 386 973 333 994 q 439 938 439 951 q 447 931 439 931 q 489 887 464 929 q 514 817 514 844 q 501 765 514 794 q 472 721 488 736 q 416 681 453 701 q 356 656 379 661 q 343 652 351 654 q 328 649 335 650 q 317 646 321 647 q 192 636 294 640 q 183 633 182 636 q 193 614 183 629 q 211 583 210 589 q 317 423 213 574 q 450 235 421 272 q 474 192 467 213 q 468 154 482 169 q 444 140 456 140 q 418 156 433 140 q 374 214 406 168 q 331 288 343 260 q 304 326 322 304 q 278 363 286 349 q 250 401 261 390 q 238 425 238 417 q 231 435 238 435 q 203 478 225 435 q 171 525 182 518 q 168 533 165 528 q 153 561 171 540 l 135 582 l 139 503 q 143 438 140 482 q 147 381 146 393 q 154 250 154 301 q 149 183 154 200 q 132 157 140 163 q 119 153 125 153 q 97 160 107 153 q 88 179 88 168 q 75 417 82 338 q 69 814 69 517 q 72 978 69 975 q 101 985 76 982 q 161 996 118 986 q 226 1004 183 1000 z "},"S":{"ha":683,"x_min":76,"x_max":610,"o":"m 328 988 q 378 993 356 993 q 485 971 451 993 q 513 940 497 963 q 529 907 529 917 q 517 898 529 899 q 494 906 504 897 q 463 917 483 917 q 443 922 443 917 q 390 928 443 928 q 340 925 340 928 q 290 897 340 918 q 232 863 240 874 q 219 857 225 853 l 215 857 q 217 853 215 856 q 211 840 222 846 q 188 778 200 835 q 197 744 185 764 q 318 706 215 713 q 400 694 374 701 q 467 667 426 688 q 573 584 536 632 q 610 458 610 536 q 560 279 608 371 q 519 227 549 257 q 481 197 490 197 q 464 186 472 197 q 397 156 444 163 q 371 147 374 150 q 335 142 367 142 q 185 161 236 142 q 133 181 135 181 q 100 212 124 183 q 76 249 76 240 q 83 252 76 254 q 90 257 90 250 q 108 274 90 268 q 117 275 111 275 q 158 249 132 275 q 210 217 185 225 q 285 208 236 208 q 358 225 328 211 q 380 234 363 228 q 407 245 397 240 q 417 254 417 250 q 426 267 417 264 q 481 319 444 272 q 533 401 517 365 q 543 461 543 425 q 521 543 543 524 q 467 574 485 574 l 464 574 q 450 582 458 571 q 425 593 439 593 q 404 600 408 593 q 314 625 394 613 q 213 649 240 636 q 160 690 193 658 q 126 732 128 721 q 124 751 126 736 q 121 774 121 765 q 124 788 121 779 q 128 813 128 794 q 182 907 128 850 q 328 988 238 965 z "},"T":{"ha":674,"x_min":78,"x_max":597,"o":"m 314 492 q 318 496 318 492 q 314 500 318 500 q 311 496 311 500 q 314 492 311 492 m 140 1003 q 197 1006 168 1006 q 261 1003 222 1006 q 299 1001 275 1001 q 343 1006 335 1001 q 385 1008 347 1008 q 450 1007 425 1008 q 556 1001 553 1001 q 580 991 567 1001 q 596 971 593 981 q 583 949 597 963 q 463 933 569 936 q 346 917 346 929 q 353 910 346 914 q 365 865 360 906 q 371 782 371 825 q 368 738 371 763 q 364 631 364 704 l 364 604 l 364 579 q 360 517 364 521 q 360 504 353 511 q 364 487 361 503 q 370 449 367 471 q 374 413 374 426 q 367 392 374 392 q 367 386 357 392 q 375 288 374 382 l 375 201 l 375 182 q 346 164 374 164 q 318 182 318 164 q 307 351 313 207 q 301 585 301 496 l 301 611 q 304 789 301 642 l 304 844 q 301 928 304 925 q 213 935 297 932 q 113 942 136 936 q 82 963 89 947 q 78 978 78 971 q 140 1003 78 999 z "},"U":{"ha":735,"x_min":76,"x_max":664,"o":"m 607 704 q 603 708 607 708 q 600 704 600 708 q 603 701 600 701 q 607 704 607 701 m 575 971 q 597 981 585 981 q 632 942 625 981 q 647 831 644 879 q 654 765 650 774 q 664 550 664 739 q 660 450 664 471 q 603 289 649 376 q 586 269 603 283 q 575 254 568 254 q 573 249 578 254 q 553 231 568 244 q 397 178 493 178 q 385 178 393 178 q 374 179 378 179 q 286 197 315 183 q 251 211 261 211 q 211 238 249 211 q 150 315 174 264 q 114 428 119 378 q 108 449 108 447 q 86 606 96 483 q 76 839 76 729 q 79 931 76 907 q 94 974 85 974 l 99 974 q 122 934 115 972 q 135 756 128 896 q 174 431 146 560 q 212 323 189 358 q 283 264 235 288 q 386 240 331 240 q 503 275 451 240 q 567 369 554 310 q 572 382 567 374 q 590 483 579 393 q 601 606 601 572 q 597 658 601 617 q 578 849 582 792 q 568 943 569 939 q 575 971 564 957 z "},"V":{"ha":740,"x_min":75,"x_max":664,"o":"m 618 990 q 639 1000 626 1000 q 656 993 649 1000 q 664 975 664 986 q 551 578 664 899 q 540 546 547 563 q 531 514 533 529 q 499 421 529 504 q 467 331 468 338 q 439 260 460 307 q 413 211 418 213 q 411 196 411 211 q 390 164 411 185 q 354 142 369 143 l 349 142 q 326 154 335 142 q 303 201 317 167 q 288 236 299 211 q 269 281 276 261 q 258 317 263 300 q 249 342 253 338 q 242 363 242 346 q 236 383 242 378 q 217 433 231 389 q 204 489 204 476 q 201 496 201 496 q 187 527 197 496 q 166 592 176 558 q 154 628 156 625 q 147 668 150 635 q 139 708 144 701 q 131 729 133 717 q 97 869 104 858 q 93 897 89 886 q 90 913 99 910 q 79 940 85 914 q 88 972 75 967 q 113 969 100 978 q 138 924 122 964 q 157 861 154 885 q 164 839 160 839 q 174 813 168 839 q 202 691 181 778 q 228 599 224 604 q 240 564 233 590 q 328 306 253 518 q 344 260 331 294 l 354 235 l 374 276 q 392 329 392 318 q 414 397 392 338 q 442 464 436 456 q 451 494 446 471 q 472 554 458 524 q 543 758 524 665 q 548 776 546 768 q 552 789 550 785 q 556 793 554 793 q 558 794 557 793 q 559 797 558 794 q 560 803 560 800 q 561 813 561 807 q 585 908 563 839 q 618 990 607 976 z "},"W":{"ha":918,"x_min":78,"x_max":842,"o":"m 328 406 q 324 410 328 410 q 321 406 321 410 q 324 403 321 403 q 328 406 328 403 m 113 929 q 110 932 113 932 q 106 929 106 932 q 110 925 106 925 q 113 929 113 925 m 371 411 q 356 390 371 407 q 342 369 342 372 q 299 285 344 353 q 258 214 276 253 q 218 163 235 163 q 211 164 214 163 q 183 219 193 172 q 171 281 178 253 q 140 471 143 406 q 129 551 140 501 q 121 600 121 590 q 122 604 121 601 l 122 607 q 121 619 126 617 q 111 648 117 622 q 106 688 106 674 q 99 721 106 699 q 79 906 90 749 q 78 942 78 919 q 85 979 78 969 q 99 990 93 990 q 131 883 113 990 q 185 574 151 763 q 203 454 199 488 q 217 343 210 385 q 231 310 221 310 q 257 343 240 310 q 305 431 260 350 q 369 550 350 511 q 410 613 382 574 l 431 640 q 458 660 443 660 q 492 653 467 660 q 519 637 511 647 q 556 569 528 626 q 674 369 615 450 l 690 347 l 703 442 q 722 570 708 481 q 739 697 735 660 q 747 725 740 708 q 754 753 753 742 q 784 913 763 838 q 821 989 806 989 q 842 933 842 989 q 825 800 842 886 q 790 539 807 711 q 787 512 790 533 q 779 457 783 490 q 771 396 775 424 q 754 256 767 367 q 726 201 753 201 q 697 212 713 201 q 681 231 681 222 q 676 249 681 244 q 594 374 633 301 q 553 444 592 381 q 539 475 535 469 q 536 481 544 481 q 501 547 525 481 q 492 572 492 567 q 486 588 492 581 q 479 592 483 592 q 463 578 472 592 q 451 557 453 564 q 410 479 450 546 q 371 411 371 414 z "},"X":{"ha":710,"x_min":75,"x_max":633,"o":"m 203 378 q 199 381 203 381 q 196 378 196 381 q 199 374 196 374 q 203 378 203 374 m 153 979 q 149 982 153 982 q 144 979 144 982 q 149 975 144 975 q 153 979 153 975 m 156 989 q 160 993 160 989 q 156 997 160 997 q 153 993 153 997 q 156 989 153 989 m 121 996 q 142 1001 131 1001 q 167 989 161 1001 q 231 849 231 864 q 236 839 231 839 q 256 811 243 839 q 289 754 269 782 l 307 724 l 347 790 q 419 915 367 822 q 465 976 453 974 q 496 964 496 986 q 460 878 496 956 q 406 771 424 801 q 368 708 382 733 l 344 667 l 364 633 q 393 591 374 617 q 425 540 413 565 q 444 510 440 510 q 488 447 450 510 q 621 239 551 343 q 633 206 633 219 q 617 181 633 189 q 608 179 614 179 q 531 258 579 179 q 496 308 500 306 q 475 340 490 310 q 447 392 468 354 q 374 503 432 418 q 313 589 315 589 q 256 481 310 589 q 247 457 250 474 q 224 399 246 451 q 200 342 201 346 q 188 307 196 331 q 171 260 179 283 q 138 172 149 192 q 113 147 128 151 q 101 146 108 146 q 75 172 75 146 q 76 183 75 179 q 82 207 82 203 q 90 224 82 215 q 113 260 100 233 q 128 303 125 288 q 147 365 131 322 q 168 413 163 407 q 174 429 174 421 q 224 547 174 440 l 274 656 l 257 678 q 233 716 243 696 q 213 750 222 736 q 174 838 174 813 q 168 846 174 843 q 138 897 160 851 q 113 963 117 942 q 121 996 107 988 z "},"Y":{"ha":657,"x_min":78,"x_max":579,"o":"m 314 549 q 311 553 314 553 q 307 549 307 553 q 311 546 307 546 q 314 549 314 546 m 572 921 q 568 925 572 925 q 565 921 565 925 q 568 918 565 918 q 572 921 572 918 m 572 936 q 568 939 572 939 q 565 936 565 939 q 568 932 565 932 q 572 936 572 932 m 78 960 q 88 972 78 965 q 107 978 97 978 q 121 964 121 978 q 131 954 121 954 q 176 906 147 954 q 197 876 183 894 q 228 828 210 857 q 283 751 256 779 l 311 725 l 329 742 q 361 776 349 758 q 383 796 374 796 q 393 806 393 796 q 465 889 394 817 q 547 961 536 961 q 569 953 560 961 q 579 932 579 944 q 456 786 579 911 q 400 725 400 728 q 369 690 400 721 l 338 661 l 343 619 q 353 516 347 586 q 364 413 360 446 q 375 282 368 378 q 378 229 378 235 q 368 194 378 206 q 350 181 356 181 q 331 193 343 181 q 315 257 317 207 q 297 438 313 326 q 289 558 293 463 l 283 660 l 253 690 q 200 753 229 713 q 168 806 171 794 q 154 828 167 814 q 110 897 142 843 q 78 960 78 951 z "},"Z":{"ha":701,"x_min":75,"x_max":625,"o":"m 150 319 q 146 324 150 324 q 143 319 143 324 q 146 317 143 317 q 150 319 150 317 m 381 669 q 392 669 386 664 q 386 675 397 675 q 381 669 375 675 m 421 1008 q 450 1010 433 1010 q 480 1009 457 1010 q 517 1008 503 1008 q 618 993 608 1007 q 625 975 625 983 q 611 951 625 961 q 581 914 606 949 q 533 842 557 879 q 506 803 508 806 q 492 774 497 792 q 468 736 488 758 q 450 710 450 715 q 444 703 450 703 q 432 683 436 703 q 397 617 428 664 q 300 460 300 468 q 293 453 300 453 q 283 440 289 453 q 186 281 276 425 l 165 247 l 257 243 q 364 235 354 238 q 479 228 371 233 q 594 219 588 222 q 614 199 607 214 q 610 169 622 182 q 550 160 600 160 q 429 163 543 160 q 281 169 332 165 q 178 174 229 172 q 97 180 118 175 q 75 203 75 185 q 115 289 75 219 q 175 385 174 383 q 183 400 176 388 q 194 420 189 413 q 204 428 200 428 l 207 428 q 212 428 210 426 q 214 438 214 431 q 221 453 214 453 q 229 464 229 453 q 236 474 229 474 q 239 481 243 474 l 239 482 l 238 483 q 251 503 238 489 q 264 519 264 517 q 306 599 260 524 q 335 628 317 619 q 350 651 350 635 q 361 672 350 667 q 368 682 371 678 q 378 708 365 689 q 415 767 381 713 q 456 829 449 821 q 472 854 461 835 q 503 899 481 869 q 533 933 526 928 q 536 942 540 938 q 375 946 533 946 l 260 946 q 146 948 169 946 q 114 958 122 950 q 118 992 90 979 q 199 998 124 994 q 347 1004 275 1001 q 421 1008 419 1007 z "},"a":{"ha":629,"x_min":75,"x_max":557,"o":"m 89 213 q 85 217 89 217 q 82 213 82 217 q 85 210 82 210 q 89 213 89 210 m 139 306 q 135 310 139 310 q 132 306 132 310 q 135 303 132 303 q 139 306 139 303 m 264 551 q 254 568 267 558 q 242 563 246 575 q 215 475 233 542 q 197 394 197 408 q 206 392 197 392 q 276 394 215 392 l 354 399 l 336 424 q 283 500 304 472 q 275 524 275 511 q 268 542 275 538 q 264 551 261 546 m 207 610 q 226 651 219 643 q 246 660 232 660 q 286 633 265 660 q 376 492 317 593 q 451 367 435 390 q 468 336 468 343 q 500 286 468 331 q 532 231 532 239 q 540 224 532 224 q 551 197 547 224 q 543 161 557 172 q 521 153 531 153 q 482 190 504 153 q 414 297 438 264 l 386 339 l 325 335 q 201 324 226 328 q 175 313 175 319 q 165 297 175 303 q 158 282 158 294 q 144 222 158 267 q 122 168 131 178 q 103 161 115 161 q 81 169 86 161 q 75 192 75 178 q 86 251 75 210 q 108 294 99 294 q 108 308 117 294 q 108 339 100 321 q 132 406 110 343 q 154 464 147 457 q 160 479 160 469 q 173 517 160 486 q 186 550 186 549 q 207 610 192 571 z "},"b":{"ha":521,"x_min":72,"x_max":446,"o":"m 253 601 q 178 613 214 613 q 150 611 160 613 l 122 610 l 128 550 q 139 406 132 497 q 150 271 146 314 l 156 215 l 201 219 q 299 240 249 225 q 364 267 350 254 q 383 276 378 281 q 386 278 386 275 q 383 288 386 281 q 356 321 378 306 q 276 342 333 339 q 213 357 221 346 q 208 369 208 364 q 247 406 208 394 q 320 450 294 419 q 346 519 346 481 q 253 601 346 576 m 210 650 q 207 653 210 653 q 203 650 203 653 q 207 646 203 646 q 210 650 210 646 m 121 669 q 172 672 151 672 q 296 654 260 672 q 335 639 324 639 q 375 608 350 639 q 407 551 400 578 q 411 540 410 543 q 413 526 413 536 q 400 467 413 501 q 372 418 388 433 l 357 401 l 378 385 q 446 303 446 336 q 246 165 446 200 q 160 156 192 156 q 132 165 132 156 q 110 181 132 171 q 89 208 89 190 q 85 267 89 213 q 72 521 72 406 q 86 660 72 646 q 121 669 93 667 z "},"c":{"ha":504,"x_min":75,"x_max":428,"o":"m 268 674 q 307 682 283 682 q 389 654 372 682 q 397 631 397 642 q 384 608 397 617 q 350 599 371 599 q 335 600 340 599 q 326 601 332 600 q 318 601 321 601 q 251 590 285 601 q 206 561 218 578 q 179 517 189 542 q 160 428 160 471 q 205 299 160 353 q 318 246 250 246 q 338 247 331 246 q 388 253 379 253 q 424 236 414 253 q 428 224 428 231 q 390 186 428 204 q 313 167 349 167 q 171 235 236 167 q 122 290 136 269 q 94 353 100 328 q 83 389 89 375 q 75 435 75 408 q 107 549 75 494 q 177 624 126 582 q 247 667 228 667 q 268 674 258 667 z "},"d":{"ha":488,"x_min":74,"x_max":415,"o":"m 226 596 q 146 615 183 615 q 139 614 139 615 q 140 605 139 613 q 143 583 142 597 q 146 557 144 569 q 161 428 150 496 q 168 338 161 426 q 183 204 176 210 q 193 201 185 203 q 215 200 201 200 q 288 226 253 200 q 356 368 356 276 q 349 431 356 393 q 226 596 322 553 m 126 674 q 156 678 146 678 q 197 669 161 678 q 298 622 238 663 q 358 563 358 582 q 368 546 358 553 q 399 475 379 535 q 415 365 415 421 q 392 253 415 300 q 213 138 331 138 q 165 144 165 138 q 154 151 165 151 q 143 158 143 151 q 131 179 143 167 q 113 258 118 192 q 105 335 110 294 q 97 429 100 376 q 83 546 94 490 q 74 613 74 594 q 126 674 74 663 z "},"e":{"ha":461,"x_min":74,"x_max":386,"o":"m 108 642 q 104 646 108 646 q 100 642 100 646 q 104 639 100 639 q 108 642 108 639 m 236 681 q 308 688 285 688 q 354 678 342 688 q 364 657 364 668 q 333 632 364 638 q 326 630 332 632 q 318 626 321 628 l 301 626 l 276 626 q 226 622 226 626 q 185 615 226 617 l 140 614 l 139 546 l 139 525 q 142 469 139 475 q 240 461 146 461 q 338 455 318 460 q 358 428 358 450 q 338 399 358 406 q 251 390 318 392 q 210 390 232 390 q 175 389 188 389 q 160 389 163 389 q 154 360 154 389 q 168 219 154 306 q 181 208 168 208 q 218 211 199 208 q 307 217 285 217 q 378 207 368 217 q 386 188 386 199 q 378 168 386 176 q 330 157 369 161 q 244 150 290 153 q 189 146 199 147 q 156 142 168 142 q 129 146 142 142 q 112 157 115 151 q 107 186 108 163 q 97 286 107 233 q 97 307 93 307 q 101 306 99 307 q 107 303 107 303 q 101 311 107 304 q 75 529 83 333 q 74 556 75 539 q 74 579 74 572 q 84 649 74 632 q 126 672 94 667 q 164 671 154 676 q 172 674 172 665 q 189 678 172 681 l 199 678 q 236 681 208 678 z "},"f":{"ha":497,"x_min":74,"x_max":424,"o":"m 135 650 q 131 653 135 653 q 128 650 128 653 q 131 646 128 646 q 135 650 135 646 m 99 669 q 106 675 106 665 q 118 679 106 685 q 308 664 140 672 q 401 656 379 661 q 424 635 424 650 q 421 619 424 631 l 417 599 l 331 597 l 311 597 q 139 614 185 597 l 138 614 q 135 615 136 615 q 128 594 128 615 q 135 515 128 564 l 143 451 l 242 453 l 318 453 q 385 449 385 453 l 383 447 q 389 426 379 443 q 394 413 394 419 q 267 390 394 396 q 211 388 242 389 q 167 386 181 388 l 151 386 q 157 344 149 383 q 171 239 161 319 q 176 183 176 201 q 164 158 176 168 q 146 150 153 150 q 103 304 111 150 q 76 457 100 353 q 74 507 74 467 q 75 575 74 531 q 76 628 76 619 q 81 658 75 644 q 94 671 88 671 q 99 669 97 671 z "},"g":{"ha":504,"x_min":75,"x_max":431,"o":"m 138 249 q 133 251 138 251 q 131 249 131 251 q 133 244 131 244 q 138 249 138 244 m 381 421 q 378 424 381 424 q 374 421 374 424 q 378 417 374 417 q 381 421 381 417 m 331 635 q 328 639 331 639 q 324 635 324 639 q 328 632 324 632 q 331 635 331 632 m 196 635 q 201 638 201 631 q 217 653 201 644 q 244 661 232 661 q 253 660 250 661 q 267 660 267 653 q 278 667 267 667 q 319 653 296 667 q 344 628 344 639 q 293 614 344 615 q 247 610 258 614 q 217 585 236 606 q 168 516 192 558 q 144 454 144 474 q 133 433 144 439 q 129 421 122 429 q 140 361 135 415 q 152 304 144 319 q 190 261 160 289 q 237 242 201 251 q 300 233 272 233 l 313 233 q 355 250 346 238 q 364 307 364 263 l 364 324 l 363 385 l 289 386 q 200 401 215 388 q 190 421 190 411 q 221 449 190 442 q 299 451 235 451 q 403 446 393 451 q 421 392 411 442 q 431 310 431 343 q 430 301 431 307 q 429 294 429 296 q 403 217 419 247 q 369 188 386 188 q 360 182 360 188 q 297 171 360 171 l 278 171 q 185 194 229 172 q 109 253 132 221 q 76 344 86 285 q 76 351 76 346 q 75 360 75 356 q 82 437 75 390 q 94 492 89 483 q 107 522 99 499 q 151 593 117 551 q 194 635 185 635 l 196 635 z "},"h":{"ha":501,"x_min":74,"x_max":432,"o":"m 381 199 q 378 201 381 201 q 374 199 374 201 q 378 194 374 194 q 381 199 381 194 m 411 225 q 422 225 417 219 q 417 231 428 231 q 411 225 406 231 m 331 369 q 328 374 331 374 q 324 369 324 374 q 328 367 324 367 q 331 369 331 367 m 363 661 q 367 667 360 667 q 386 661 376 668 q 399 619 392 657 q 408 553 407 582 q 419 351 415 363 q 432 218 432 314 q 426 151 432 169 q 407 133 421 133 q 396 135 400 133 q 364 272 371 142 q 356 360 358 356 q 336 363 350 367 q 289 358 335 363 q 199 350 243 354 q 154 343 156 346 q 153 336 153 339 q 154 320 153 331 q 157 294 156 310 q 160 267 158 279 q 164 214 164 233 q 156 181 164 189 q 129 174 149 174 q 106 186 111 174 q 99 253 101 199 q 85 379 89 371 q 84 386 83 381 q 88 396 85 392 q 88 421 93 406 q 76 544 82 435 q 74 621 74 617 q 85 656 74 651 q 103 654 97 660 q 123 578 114 643 q 139 454 132 513 q 154 396 146 396 q 213 406 164 396 q 307 417 268 417 l 350 417 l 347 531 q 346 606 346 564 q 356 650 346 646 q 363 661 367 654 z "},"i":{"ha":231,"x_min":74,"x_max":160,"o":"m 136 369 q 133 374 136 374 q 129 369 129 374 q 133 367 129 367 q 136 369 136 367 m 85 638 q 99 646 94 646 q 115 639 103 646 q 143 528 140 625 q 151 372 143 450 q 160 264 158 294 l 160 243 q 149 188 160 200 q 131 174 136 174 q 113 186 122 174 q 90 317 99 200 q 75 539 81 424 q 74 590 74 561 q 85 638 74 631 z "},"j":{"ha":501,"x_min":75,"x_max":429,"o":"m 143 192 q 139 194 143 194 q 135 192 135 194 q 139 188 135 188 q 143 192 143 188 m 279 369 q 275 374 279 374 q 271 369 271 374 q 275 367 271 367 q 279 369 279 367 m 150 614 q 146 617 150 617 q 143 614 143 617 q 146 610 143 610 q 150 614 150 610 m 188 665 q 347 674 301 674 q 414 661 400 674 q 428 647 426 651 q 424 629 429 642 q 406 613 418 615 q 335 608 394 610 l 288 608 l 294 578 q 303 392 300 557 l 303 324 q 300 241 303 260 q 285 199 297 222 q 263 167 271 174 q 229 156 256 161 q 197 153 207 153 q 165 157 181 153 q 103 200 132 167 q 75 260 75 233 q 78 274 75 269 q 100 288 86 288 q 150 260 122 288 q 197 218 182 228 q 215 210 210 210 q 225 219 219 210 q 246 403 246 249 q 243 538 246 468 l 243 606 l 197 600 q 171 599 186 599 q 121 613 149 599 q 88 640 88 631 q 188 665 88 657 z "},"k":{"ha":503,"x_min":71,"x_max":432,"o":"m 425 219 q 421 224 425 224 q 418 219 418 224 q 421 217 418 217 q 425 219 425 217 m 154 419 q 164 419 158 415 q 160 424 163 422 q 154 419 154 422 m 110 564 q 106 567 110 567 q 103 564 103 567 q 106 560 103 560 q 110 564 110 560 m 389 635 q 385 639 389 639 q 382 635 382 639 q 385 632 382 632 q 389 635 389 632 m 210 303 q 188 317 210 306 q 167 332 167 328 q 158 338 167 338 q 149 275 149 338 q 122 188 149 188 q 100 197 111 188 q 85 304 86 207 q 76 461 82 386 q 71 574 71 550 q 86 665 71 654 q 96 669 90 669 q 118 621 115 669 q 121 574 118 593 q 129 489 124 564 l 135 421 l 258 543 q 403 664 381 664 q 418 653 411 664 q 424 636 424 646 q 394 588 424 621 q 268 465 364 556 q 196 388 196 399 q 204 379 196 383 q 315 308 311 318 q 328 303 318 303 q 360 281 338 303 q 385 260 383 260 q 410 240 388 260 q 432 203 432 221 q 424 194 432 194 q 421 189 417 194 q 422 186 422 188 q 403 178 422 178 q 385 181 390 178 q 332 221 367 188 q 283 264 294 256 q 244 283 272 272 q 210 303 210 296 z "},"l":{"ha":485,"x_min":71,"x_max":408,"o":"m 94 640 q 115 632 103 654 q 119 619 118 626 q 133 319 133 569 q 131 256 133 258 q 135 236 125 247 q 154 226 140 226 q 186 231 164 226 q 304 238 225 238 q 381 232 363 238 q 407 207 400 226 q 408 200 408 204 q 297 169 408 178 q 154 158 189 163 q 130 156 146 158 q 108 154 114 154 q 78 171 85 154 q 71 244 71 188 q 72 284 71 254 q 72 333 72 314 q 94 640 78 617 z "},"m":{"ha":711,"x_min":72,"x_max":639,"o":"m 107 585 q 103 589 107 589 q 100 585 100 589 q 103 582 100 582 q 107 585 107 582 m 114 599 q 110 603 114 603 q 107 599 107 603 q 110 596 107 596 q 114 599 114 596 m 493 624 q 513 649 493 632 q 543 667 533 667 q 566 658 554 667 q 578 643 578 650 q 576 639 578 640 q 578 632 572 632 q 585 615 582 632 q 611 388 585 586 q 622 313 619 313 q 628 291 624 313 q 635 242 632 269 q 639 200 639 214 q 611 174 639 174 q 600 175 604 174 q 581 192 586 179 q 568 251 575 204 q 561 294 565 281 q 547 386 558 303 q 529 508 542 425 l 519 560 l 499 533 q 413 442 475 503 q 344 381 351 381 q 272 424 326 381 q 218 481 218 467 q 219 485 218 482 q 215 488 217 488 q 172 519 204 488 q 139 547 143 547 q 135 538 135 547 q 135 515 132 521 l 143 369 q 146 348 144 369 q 149 295 147 326 q 153 254 151 264 q 156 207 156 231 q 151 190 156 190 q 147 192 150 190 q 140 193 142 194 q 140 185 138 192 q 142 181 140 183 q 129 172 142 172 q 100 188 108 172 q 89 253 92 206 q 82 321 82 319 q 85 342 76 336 q 89 354 92 346 q 75 517 81 375 q 72 592 72 583 q 79 633 72 626 q 103 649 90 649 q 144 624 119 649 q 155 613 151 617 q 163 606 158 610 q 169 600 167 601 q 171 600 171 599 q 192 583 171 601 q 242 537 214 564 q 285 493 269 510 q 324 463 301 474 q 336 458 332 458 q 396 508 347 458 q 493 624 493 608 z "},"n":{"ha":614,"x_min":71,"x_max":544,"o":"m 364 294 q 367 299 367 294 q 364 303 367 303 q 360 299 360 303 l 360 297 q 321 344 321 339 q 319 351 318 351 l 318 351 q 214 454 311 351 q 171 514 194 478 q 138 557 143 557 q 133 504 133 557 q 143 275 133 418 q 146 226 146 233 q 140 201 146 201 q 135 189 135 201 q 110 176 135 176 q 92 182 97 176 q 77 288 83 190 q 71 490 71 386 q 81 640 71 622 q 101 660 90 660 q 149 623 111 660 q 199 567 188 586 q 233 524 206 554 q 454 290 371 372 l 482 264 l 478 292 q 469 374 469 357 q 475 388 469 388 q 478 396 483 388 q 471 433 474 406 q 458 583 458 553 q 459 592 458 586 q 460 599 460 597 q 463 636 463 624 q 479 657 465 653 q 492 658 483 658 q 522 613 521 658 q 536 403 525 532 q 544 243 544 288 q 536 178 544 199 q 511 153 525 153 q 478 178 499 153 q 363 294 471 186 l 364 294 m 88 369 q 85 374 88 374 q 81 369 81 374 q 85 367 81 367 q 88 369 88 367 m 475 624 q 479 619 475 614 q 479 629 483 625 q 475 624 476 629 m 363 294 l 360 297 q 363 294 360 294 z "},"o":{"ha":653,"x_min":75,"x_max":579,"o":"m 199 213 q 194 217 199 217 q 192 213 192 217 q 194 210 192 210 q 199 213 199 210 m 399 576 q 336 585 386 582 l 325 585 q 190 521 242 585 q 174 497 179 506 q 169 485 169 489 q 165 473 168 482 q 156 451 161 464 q 142 379 142 425 q 165 301 143 332 q 240 244 188 271 q 310 221 286 221 q 349 224 315 221 q 404 232 388 226 q 449 257 421 238 q 501 311 488 283 q 514 379 514 338 q 481 515 514 456 q 446 550 471 531 q 399 576 421 569 m 276 646 q 322 650 300 650 q 431 630 378 650 q 515 578 485 610 q 551 515 531 558 q 575 447 571 472 q 579 389 579 414 q 543 263 579 325 q 501 222 533 247 q 458 196 468 196 l 457 196 q 433 186 451 199 q 331 163 397 163 q 225 181 271 163 q 135 242 183 196 q 81 317 86 289 q 75 378 75 343 q 106 518 75 476 q 119 544 119 536 q 143 574 119 551 q 175 596 167 596 q 183 603 183 596 q 216 626 183 611 q 276 646 249 640 z "},"p":{"ha":544,"x_min":75,"x_max":472,"o":"m 289 388 q 292 392 292 388 q 289 396 292 396 q 285 392 285 396 q 289 388 285 388 m 457 542 q 453 546 457 546 q 450 542 450 546 q 453 539 450 539 q 457 542 457 539 m 322 614 q 251 626 290 626 q 165 618 249 626 q 146 613 149 617 q 146 594 143 610 q 161 460 156 499 l 165 422 l 219 426 q 350 453 313 435 q 408 529 408 483 q 401 557 408 540 q 377 589 394 571 q 353 607 360 607 l 351 607 q 322 614 349 604 m 206 686 q 228 689 207 689 q 294 684 256 689 q 333 675 332 679 q 343 671 336 667 q 350 672 344 672 q 410 641 369 672 q 464 583 450 610 q 472 538 472 567 q 461 481 472 506 q 385 401 435 426 q 242 369 335 376 q 172 357 178 364 q 169 318 169 354 q 171 272 169 310 q 172 207 172 233 q 163 167 172 182 q 142 151 154 151 q 106 211 108 151 q 82 481 101 299 q 75 575 75 538 q 79 631 75 597 q 94 660 83 650 q 99 657 99 663 q 108 663 99 650 q 160 678 115 674 q 206 686 203 683 z "},"q":{"ha":682,"x_min":76,"x_max":606,"o":"m 94 294 q 97 299 97 294 q 94 303 97 303 q 90 299 90 303 q 94 294 90 294 m 383 590 q 285 604 351 604 q 250 600 258 604 q 235 588 243 596 q 217 568 226 579 q 204 554 207 557 q 182 509 199 547 q 163 465 165 471 q 143 351 143 432 q 144 332 143 338 q 150 297 151 300 q 156 288 150 288 q 163 281 163 288 q 188 251 163 269 q 240 225 214 232 q 286 219 243 224 q 331 210 329 214 q 354 210 335 203 q 392 219 358 211 q 436 238 425 226 q 443 247 442 244 q 442 253 444 250 q 432 261 440 256 q 369 306 374 303 q 354 321 344 318 q 363 335 365 325 q 357 338 361 338 q 349 353 338 333 q 368 365 356 365 q 404 349 383 365 q 431 331 428 331 q 458 313 432 331 l 482 294 l 497 333 q 510 394 510 364 q 489 475 510 429 q 442 544 475 508 q 383 590 410 579 m 340 653 q 346 647 340 642 q 346 658 351 653 q 342 659 344 661 q 340 653 340 657 m 238 650 q 303 665 269 665 q 316 665 307 665 q 331 664 325 664 q 453 624 404 660 q 539 510 503 588 q 565 399 564 457 l 565 383 q 550 304 565 339 q 539 261 539 281 q 549 244 539 244 q 581 222 556 244 q 606 181 606 200 q 590 160 606 165 q 575 157 579 157 q 538 178 558 157 q 500 206 508 206 q 474 189 492 206 q 350 153 432 153 q 308 154 324 153 q 236 160 256 156 q 188 181 217 165 q 132 219 150 200 q 94 275 114 238 q 76 360 76 310 q 122 531 76 444 q 238 650 171 621 z "},"r":{"ha":439,"x_min":68,"x_max":368,"o":"m 86 481 q 88 481 86 481 q 90 485 90 481 q 86 489 90 489 q 82 485 82 489 q 86 481 82 481 m 215 606 q 146 621 181 621 q 129 617 131 621 q 128 594 128 614 q 129 550 128 567 q 133 499 131 532 q 136 460 136 465 q 151 424 138 429 q 174 421 157 421 q 240 433 214 421 q 276 467 260 442 q 296 519 293 492 q 297 538 297 526 q 268 574 297 553 q 215 606 240 594 m 281 639 q 294 628 286 639 q 308 617 303 617 q 338 589 319 617 q 357 522 357 558 q 344 464 357 492 q 299 403 331 432 q 244 369 267 374 q 225 363 225 365 q 229 356 225 360 q 246 344 240 344 q 269 329 251 344 q 307 295 288 314 q 328 276 326 276 q 361 229 353 254 q 368 189 368 201 q 365 179 368 179 q 344 176 361 179 l 342 176 q 231 272 322 176 q 169 326 197 306 l 138 347 l 142 314 q 143 292 143 304 q 141 274 143 283 q 139 253 139 264 l 139 239 q 135 197 142 207 q 114 186 128 186 q 93 196 101 186 q 78 293 79 211 q 72 393 75 385 q 75 413 68 407 q 76 436 81 417 q 72 524 72 453 q 78 636 72 621 q 110 656 83 651 q 178 660 147 660 q 250 650 228 660 q 281 639 272 639 z "},"s":{"ha":482,"x_min":74,"x_max":410,"o":"m 218 667 q 274 672 222 668 l 278 672 q 353 644 315 672 q 392 592 392 617 q 389 581 392 583 q 374 568 381 568 q 344 585 365 568 q 274 608 314 608 q 235 604 256 608 q 166 564 194 594 q 138 499 138 533 q 151 449 138 457 q 231 439 164 440 q 324 431 303 436 q 344 426 335 428 q 353 425 353 424 q 369 413 356 428 q 410 314 410 376 q 372 201 410 253 q 275 142 333 149 q 225 139 244 139 q 103 154 140 139 q 76 183 76 167 q 108 207 76 207 q 146 203 122 207 q 207 197 175 197 q 343 306 331 197 q 344 325 344 313 q 320 365 344 356 q 222 378 296 375 q 117 397 140 381 q 74 489 74 426 q 79 546 74 518 q 130 620 85 581 q 218 667 175 660 z "},"t":{"ha":617,"x_min":78,"x_max":543,"o":"m 328 528 q 325 531 328 531 q 321 528 321 531 q 325 524 321 524 q 328 528 328 524 m 522 664 q 518 667 522 667 q 514 664 514 667 q 518 660 514 660 q 522 664 522 660 m 482 667 q 486 671 486 667 q 482 675 486 675 q 479 671 479 675 q 482 667 479 667 m 86 681 q 119 686 92 686 q 153 685 140 686 q 292 682 181 682 q 450 685 408 682 l 467 685 q 513 678 488 685 q 543 650 543 672 q 522 625 543 631 q 425 618 501 619 q 348 613 367 617 q 329 596 329 608 q 332 582 329 593 q 342 498 338 563 q 347 421 346 433 q 351 301 351 371 q 342 161 351 174 q 322 153 336 153 q 288 174 299 153 q 278 224 278 193 q 286 251 278 251 q 286 263 294 251 q 275 329 278 271 q 267 460 272 368 q 261 567 263 551 l 260 614 l 186 615 q 94 628 110 617 q 78 660 78 639 q 86 681 78 672 z "},"u":{"ha":639,"x_min":75,"x_max":565,"o":"m 85 646 q 83 654 83 649 q 113 678 83 678 q 142 664 132 678 q 146 636 146 657 q 140 565 146 606 q 139 542 139 557 q 142 519 139 522 q 147 497 147 515 q 160 414 146 476 q 189 314 175 351 q 232 260 197 292 q 289 224 267 229 q 368 214 328 214 q 394 218 392 214 q 411 224 400 224 q 468 275 428 224 q 499 460 490 304 l 499 467 q 490 568 499 488 q 485 644 485 608 q 486 663 485 660 q 510 674 490 674 q 532 665 525 674 q 553 578 542 654 q 565 446 564 501 l 565 428 q 550 313 565 372 q 526 246 532 247 q 519 232 519 243 q 490 193 519 219 q 444 165 461 165 l 439 165 q 433 160 433 165 q 407 147 433 154 q 358 140 381 140 q 344 142 349 140 q 158 243 236 163 q 108 342 121 281 q 106 350 108 343 q 101 367 104 357 q 94 388 97 378 q 75 519 75 454 q 81 592 75 558 q 85 638 85 617 l 85 646 z "},"v":{"ha":575,"x_min":72,"x_max":503,"o":"m 404 492 q 401 496 404 496 q 397 492 397 496 q 401 489 397 489 q 404 492 404 489 m 81 642 q 99 658 89 658 q 126 643 107 658 q 164 563 153 621 q 168 548 165 560 q 174 531 171 536 q 174 503 182 511 q 174 496 167 496 q 193 469 182 496 q 248 353 208 432 q 290 274 288 274 q 303 297 293 272 q 358 428 314 321 q 435 594 407 546 q 482 643 463 643 q 494 639 489 643 q 503 622 503 632 q 476 549 503 603 q 451 490 457 508 q 440 474 447 474 q 438 464 438 474 q 425 430 438 457 q 413 400 413 403 q 396 359 413 397 q 379 319 379 321 q 345 244 376 303 q 301 174 314 185 q 281 160 288 160 q 264 167 275 160 q 224 231 244 178 q 192 308 208 272 q 186 338 182 331 q 179 351 190 343 q 168 361 168 358 q 151 406 168 369 q 125 475 140 431 q 111 514 113 511 q 96 558 106 524 q 82 600 86 592 q 81 642 72 624 z "},"w":{"ha":660,"x_min":75,"x_max":589,"o":"m 192 201 q 196 206 196 201 q 192 210 196 210 q 189 206 189 210 q 192 201 189 201 m 482 335 q 478 338 482 338 q 475 335 475 338 q 478 331 475 331 q 482 335 482 331 m 99 574 q 103 578 103 574 q 99 582 103 582 q 96 578 96 582 q 99 574 96 574 m 76 635 q 88 646 82 646 q 113 609 94 646 q 131 560 131 572 q 138 542 131 549 q 172 442 143 536 q 207 322 201 349 q 213 306 208 311 q 222 303 217 301 q 229 315 226 306 q 267 385 235 328 q 306 454 300 442 q 315 472 310 465 q 324 478 321 479 q 332 481 332 472 q 340 485 332 483 q 358 485 349 486 q 369 481 368 483 q 449 375 400 450 q 478 347 465 347 q 485 357 485 347 q 536 631 518 600 q 561 646 547 646 q 581 638 572 646 q 589 610 589 629 q 578 574 589 582 q 575 560 567 564 q 582 535 582 556 q 579 492 582 511 q 575 451 578 485 q 569 388 572 417 q 560 354 565 360 q 560 344 551 344 q 565 344 564 344 q 565 340 567 343 q 558 294 564 339 q 539 190 547 196 q 515 183 528 183 q 490 193 500 183 q 432 269 432 258 q 417 290 432 275 q 390 328 401 306 q 342 403 354 403 q 332 390 336 403 q 283 296 321 363 q 239 206 239 217 q 228 188 239 200 q 214 178 217 176 q 197 188 211 178 q 181 213 181 197 q 176 233 181 229 q 149 317 161 249 q 140 344 146 331 q 133 367 135 357 q 115 438 124 414 q 101 490 113 449 q 83 566 90 531 q 75 621 75 601 q 76 635 75 632 z "},"x":{"ha":490,"x_min":76,"x_max":417,"o":"m 336 574 q 339 578 339 574 q 336 582 339 582 q 332 578 332 582 q 336 574 332 574 m 338 619 q 350 643 338 619 q 374 669 363 667 q 394 664 385 672 q 400 649 400 658 q 339 493 400 617 q 289 385 289 390 q 310 350 289 383 q 353 283 331 317 q 375 249 375 250 l 383 235 q 399 211 392 221 q 417 167 417 188 q 403 142 417 150 q 394 139 397 139 q 301 243 369 139 q 253 310 258 310 q 225 267 242 310 q 194 211 215 242 q 175 171 175 182 q 157 154 175 164 q 125 144 139 144 q 107 167 107 144 q 122 214 107 186 q 156 275 150 261 q 176 303 172 303 q 182 313 182 303 q 196 356 182 325 l 211 388 l 188 429 q 165 472 179 443 q 139 519 150 500 q 115 554 128 538 q 76 635 76 606 q 77 638 76 636 q 78 642 78 640 q 97 664 85 664 q 125 644 108 664 q 176 573 143 622 q 210 517 210 524 q 218 510 210 510 q 225 503 225 510 q 238 475 225 494 l 250 453 l 271 492 q 304 533 290 528 q 313 554 313 536 q 338 619 313 572 z "},"y":{"ha":501,"x_min":76,"x_max":428,"o":"m 271 378 q 267 381 271 381 q 263 378 263 381 q 267 374 263 374 q 271 378 271 374 m 81 650 q 99 660 85 660 q 121 651 111 660 q 169 598 132 642 q 228 522 206 554 l 251 489 l 269 508 q 299 549 290 532 q 352 615 310 571 q 404 660 394 660 q 421 642 413 660 q 427 621 428 625 q 418 608 426 617 l 400 583 q 362 537 381 560 q 340 514 343 514 q 338 507 338 514 q 318 468 338 497 q 300 406 300 438 l 300 390 q 311 289 303 333 q 325 189 325 210 q 317 165 325 174 q 293 154 303 154 q 253 219 269 154 q 246 256 246 247 q 250 265 246 264 q 250 272 257 267 q 239 349 242 278 l 235 421 l 207 453 q 155 515 182 479 q 128 557 128 551 q 111 583 128 558 q 94 617 94 608 l 94 618 l 96 619 l 96 622 q 92 621 94 622 q 79 632 82 614 q 81 650 76 642 z "},"z":{"ha":586,"x_min":71,"x_max":508,"o":"m 267 326 q 247 303 267 324 q 228 279 228 283 q 208 249 228 271 q 188 221 188 222 q 254 218 188 218 l 301 218 q 347 219 319 218 q 385 219 375 219 q 470 215 449 219 q 500 197 492 210 q 508 180 507 185 q 501 164 508 175 q 490 154 496 157 q 460 150 483 151 q 382 149 436 149 l 292 149 q 88 160 94 149 q 85 175 85 164 q 94 201 85 201 q 128 258 100 201 q 289 489 188 379 q 349 562 315 517 q 382 615 382 607 q 363 622 382 622 q 337 622 360 622 q 281 623 314 622 q 217 624 247 624 q 81 632 89 626 q 81 639 71 639 q 83 644 93 639 q 77 663 76 650 q 86 681 78 675 q 150 688 94 685 l 207 690 q 268 693 210 693 q 447 686 436 693 q 464 658 464 679 q 460 649 464 653 q 453 633 453 644 q 413 554 453 624 q 367 482 374 485 q 364 474 360 479 q 350 451 365 469 q 338 425 333 436 q 332 417 339 417 q 324 408 324 417 q 296 365 324 399 q 267 326 267 331 z "}," ":{"ha":347,"x_min":0,"x_max":0,"o":""}}}
